<mxfile host="app.diagrams.net" agent="Mozilla/5.0 (Windows NT 10.0; Win64; x64) AppleWebKit/537.36 (KHTML, like Gecko) Chrome/131.0.0.0 Safari/537.36" version="24.7.17">
  <diagram name="Page-1" id="Ou0QDeuBW0_C945beiJ1">
    <mxGraphModel dx="1434" dy="744" grid="0" gridSize="10" guides="1" tooltips="1" connect="1" arrows="1" fold="1" page="1" pageScale="1" pageWidth="850" pageHeight="1100" math="0" shadow="0">
      <root>
        <mxCell id="0" />
        <mxCell id="1" parent="0" />
        <mxCell id="4qRpMjFqUVP8ZO3B1cwk-16" value="" style="rounded=1;whiteSpace=wrap;html=1;fillColor=#fad7ac;strokeColor=#b46504;fillStyle=hatch;glass=0;shadow=0;" vertex="1" parent="1">
          <mxGeometry x="94" y="1167" width="726" height="394.22" as="geometry" />
        </mxCell>
        <mxCell id="4qRpMjFqUVP8ZO3B1cwk-1" value="" style="group" vertex="1" connectable="0" parent="1">
          <mxGeometry x="45" y="90" width="1425" height="974" as="geometry" />
        </mxCell>
        <mxCell id="VIP0-5HIC0JtuQcf17Q0-1" value="" style="rounded=1;whiteSpace=wrap;html=1;fillColor=none;strokeColor=#FF6666;" parent="4qRpMjFqUVP8ZO3B1cwk-1" vertex="1">
          <mxGeometry x="988.59375" y="632.8454070201643" width="211.56887755102042" height="341.1545929798357" as="geometry" />
        </mxCell>
        <mxCell id="VIP0-5HIC0JtuQcf17Q0-2" value="" style="rounded=1;whiteSpace=wrap;html=1;fillColor=none;strokeColor=#0000FF;" parent="4qRpMjFqUVP8ZO3B1cwk-1" vertex="1">
          <mxGeometry x="74.88520408163266" y="10.911127707244212" width="782.295918367347" height="909.260642270351" as="geometry" />
        </mxCell>
        <mxCell id="VIP0-5HIC0JtuQcf17Q0-3" value="" style="rounded=1;whiteSpace=wrap;html=1;fillColor=#fad7ac;strokeColor=#b46504;fillStyle=hatch;glass=0;shadow=0;" parent="4qRpMjFqUVP8ZO3B1cwk-1" vertex="1">
          <mxGeometry width="1425" height="669.2158327109784" as="geometry" />
        </mxCell>
        <mxCell id="VIP0-5HIC0JtuQcf17Q0-4" style="edgeStyle=elbowEdgeStyle;rounded=0;orthogonalLoop=1;jettySize=auto;html=1;exitX=0.015;exitY=0.015;exitDx=0;exitDy=0;exitPerimeter=0;entryX=1;entryY=0.5;entryDx=0;entryDy=0;flowAnimation=1;startArrow=oval;startFill=0;jumpStyle=arc;strokeColor=#000099;elbow=vertical;" parent="4qRpMjFqUVP8ZO3B1cwk-1" source="VIP0-5HIC0JtuQcf17Q0-9" target="VIP0-5HIC0JtuQcf17Q0-38" edge="1">
          <mxGeometry relative="1" as="geometry">
            <Array as="points">
              <mxPoint x="316.26275510204084" y="221.85959671396566" />
            </Array>
          </mxGeometry>
        </mxCell>
        <mxCell id="hWWQz9CTG23grLyMKggC-1" value="VMBR3.50" style="edgeLabel;html=1;align=center;verticalAlign=middle;resizable=0;points=[];" parent="VIP0-5HIC0JtuQcf17Q0-4" vertex="1" connectable="0">
          <mxGeometry x="0.5141" y="1" relative="1" as="geometry">
            <mxPoint as="offset" />
          </mxGeometry>
        </mxCell>
        <mxCell id="VIP0-5HIC0JtuQcf17Q0-5" style="edgeStyle=elbowEdgeStyle;rounded=0;orthogonalLoop=1;jettySize=auto;html=1;exitX=0.015;exitY=0.985;exitDx=0;exitDy=0;exitPerimeter=0;entryX=1;entryY=0.5;entryDx=0;entryDy=0;flowAnimation=1;strokeColor=#000099;elbow=vertical;" parent="4qRpMjFqUVP8ZO3B1cwk-1" source="VIP0-5HIC0JtuQcf17Q0-9" target="VIP0-5HIC0JtuQcf17Q0-43" edge="1">
          <mxGeometry relative="1" as="geometry">
            <Array as="points">
              <mxPoint x="312.6275510204082" y="485.18147871545926" />
            </Array>
          </mxGeometry>
        </mxCell>
        <mxCell id="hWWQz9CTG23grLyMKggC-5" value="VMBR3.11" style="edgeLabel;html=1;align=center;verticalAlign=middle;resizable=0;points=[];" parent="VIP0-5HIC0JtuQcf17Q0-5" vertex="1" connectable="0">
          <mxGeometry x="0.3465" y="1" relative="1" as="geometry">
            <mxPoint as="offset" />
          </mxGeometry>
        </mxCell>
        <mxCell id="VIP0-5HIC0JtuQcf17Q0-6" style="edgeStyle=elbowEdgeStyle;rounded=0;orthogonalLoop=1;jettySize=auto;html=1;exitX=0.985;exitY=0.985;exitDx=0;exitDy=0;exitPerimeter=0;entryX=0;entryY=0.5;entryDx=0;entryDy=0;flowAnimation=1;strokeColor=#000099;elbow=vertical;" parent="4qRpMjFqUVP8ZO3B1cwk-1" source="VIP0-5HIC0JtuQcf17Q0-9" target="VIP0-5HIC0JtuQcf17Q0-34" edge="1">
          <mxGeometry relative="1" as="geometry">
            <Array as="points">
              <mxPoint x="589.6301020408164" y="485.18147871545926" />
            </Array>
          </mxGeometry>
        </mxCell>
        <mxCell id="hWWQz9CTG23grLyMKggC-4" value="VMBR3.100" style="edgeLabel;html=1;align=center;verticalAlign=middle;resizable=0;points=[];" parent="VIP0-5HIC0JtuQcf17Q0-6" vertex="1" connectable="0">
          <mxGeometry x="0.2464" y="-1" relative="1" as="geometry">
            <mxPoint as="offset" />
          </mxGeometry>
        </mxCell>
        <mxCell id="VIP0-5HIC0JtuQcf17Q0-7" style="edgeStyle=elbowEdgeStyle;rounded=0;orthogonalLoop=1;jettySize=auto;html=1;exitX=0.985;exitY=0.015;exitDx=0;exitDy=0;exitPerimeter=0;entryX=0;entryY=0.5;entryDx=0;entryDy=0;flowAnimation=1;strokeColor=#000099;elbow=vertical;" parent="4qRpMjFqUVP8ZO3B1cwk-1" source="VIP0-5HIC0JtuQcf17Q0-9" target="VIP0-5HIC0JtuQcf17Q0-24" edge="1">
          <mxGeometry relative="1" as="geometry">
            <Array as="points">
              <mxPoint x="594.719387755102" y="213.13069454817025" />
            </Array>
          </mxGeometry>
        </mxCell>
        <mxCell id="hWWQz9CTG23grLyMKggC-2" value="VMBR3.20" style="edgeLabel;html=1;align=center;verticalAlign=middle;resizable=0;points=[];" parent="VIP0-5HIC0JtuQcf17Q0-7" vertex="1" connectable="0">
          <mxGeometry x="0.1026" y="-1" relative="1" as="geometry">
            <mxPoint as="offset" />
          </mxGeometry>
        </mxCell>
        <mxCell id="VIP0-5HIC0JtuQcf17Q0-8" style="edgeStyle=orthogonalEdgeStyle;rounded=0;orthogonalLoop=1;jettySize=auto;html=1;exitX=0.5;exitY=1;exitDx=0;exitDy=0;exitPerimeter=0;flowAnimation=1;strokeColor=#000099;" parent="4qRpMjFqUVP8ZO3B1cwk-1" source="VIP0-5HIC0JtuQcf17Q0-9" target="VIP0-5HIC0JtuQcf17Q0-12" edge="1">
          <mxGeometry relative="1" as="geometry" />
        </mxCell>
        <mxCell id="VIP0-5HIC0JtuQcf17Q0-9" value="" style="sketch=0;points=[[0.015,0.015,0],[0.985,0.015,0],[0.985,0.985,0],[0.015,0.985,0],[0.25,0,0],[0.5,0,0],[0.75,0,0],[1,0.25,0],[1,0.5,0],[1,0.75,0],[0.75,1,0],[0.5,1,0],[0.25,1,0],[0,0.75,0],[0,0.5,0],[0,0.25,0]];verticalLabelPosition=bottom;html=1;verticalAlign=top;aspect=fixed;align=center;pointerEvents=1;shape=mxgraph.cisco19.rect;prIcon=l2_switch;fillColor=none;strokeColor=#005073;" parent="4qRpMjFqUVP8ZO3B1cwk-1" vertex="1">
          <mxGeometry x="422.4107142857143" y="290.96340552651236" width="56.6333414480172" height="56.6333414480172" as="geometry" />
        </mxCell>
        <mxCell id="VIP0-5HIC0JtuQcf17Q0-10" value="" style="sketch=0;points=[[0.5,0,0],[1,0.5,0],[0.5,1,0],[0,0.5,0],[0.145,0.145,0],[0.8555,0.145,0],[0.855,0.8555,0],[0.145,0.855,0]];verticalLabelPosition=bottom;html=1;verticalAlign=top;aspect=fixed;align=center;pointerEvents=1;shape=mxgraph.cisco19.rect;prIcon=router;fillColor=#FAFAFA;strokeColor=#005073;" parent="4qRpMjFqUVP8ZO3B1cwk-1" vertex="1">
          <mxGeometry x="426.0459183673469" y="864.8887229275579" width="49.554173767015044" height="49.554173767015044" as="geometry" />
        </mxCell>
        <mxCell id="VIP0-5HIC0JtuQcf17Q0-11" style="edgeStyle=orthogonalEdgeStyle;rounded=0;orthogonalLoop=1;jettySize=auto;html=1;flowAnimation=1;strokeColor=#000099;" parent="4qRpMjFqUVP8ZO3B1cwk-1" source="VIP0-5HIC0JtuQcf17Q0-12" target="VIP0-5HIC0JtuQcf17Q0-56" edge="1">
          <mxGeometry relative="1" as="geometry" />
        </mxCell>
        <mxCell id="VIP0-5HIC0JtuQcf17Q0-12" value="&lt;span style=&quot;background-color: rgb(255, 255, 255);&quot;&gt;ENO3&lt;/span&gt;" style="sketch=0;pointerEvents=1;shadow=0;dashed=0;html=1;strokeColor=none;fillColor=#434445;aspect=fixed;labelPosition=center;verticalLabelPosition=bottom;verticalAlign=top;align=center;outlineConnect=0;shape=mxgraph.vvd.ethernet_port;" parent="4qRpMjFqUVP8ZO3B1cwk-1" vertex="1">
          <mxGeometry x="433.3163265306123" y="649.5758028379388" width="35.39583840501075" height="35.39583840501075" as="geometry" />
        </mxCell>
        <mxCell id="VIP0-5HIC0JtuQcf17Q0-13" value="" style="sketch=0;pointerEvents=1;shadow=0;dashed=0;html=1;strokeColor=none;fillColor=#434445;aspect=fixed;labelPosition=center;verticalLabelPosition=bottom;verticalAlign=top;align=center;outlineConnect=0;shape=mxgraph.vvd.ethernet_port;" parent="4qRpMjFqUVP8ZO3B1cwk-1" vertex="1">
          <mxGeometry x="1076.202168367347" y="653.2128454070202" width="35.39583840501075" height="35.39583840501075" as="geometry" />
        </mxCell>
        <mxCell id="VIP0-5HIC0JtuQcf17Q0-14" value="" style="shape=image;verticalLabelPosition=bottom;labelBackgroundColor=default;verticalAlign=top;aspect=fixed;imageAspect=0;image=data:image/png,iVBORw0KGgoAAAANSUhEUgAAAyAAAAMgCAYAAADbcAZoAAAACXBIWXMAAA7DAAAOwwHHb6hkAAAAGXRFWHRTb2Z0d2FyZQB3d3cuaW5rc2NhcGUub3Jnm+48GgAAIABJREFUeJzs3XmcXFWd9/HPqU4CREmCbEl1R1lEx5kB9xVQQNawCyiOuKAYFwjdHVB0Rod2G5Ul3U1AARd8BBXZ9y0oOoAr+ogMbggI3V1hi0lEsned54/CZxxHIOk+1afq3s/79bqvaEi+95db1d33V/csIEmSJEmSJEmSJEmSJEmSJEmSJEmSJEmSJEmSJEmSJEmSJEmSJEmSJEmSJEmSJEmSJEmSJEmSJEmSJEmSJEmSJEmSJEmSJEmSJEmSJEmSJEmSJEmSJEmSJEmSJEmSJEmSJEmSJEmSJEmSJEmSJEmSJEmSJEmSJEmSJEmSJEmSJEmSJEmSJEmSJEmSJEmSJEmSJEmSJEmSJEmSJEmSJEmSJEmSJEmSJEmSJEmSJEmSJEmSJEmSJEmSJEmSJEmSJEmSJEmSJEmSJEmSJEmSJEmSJEmSJEmSJEmSJEmSJEmSJEmSJEmSJEmSJEmSJEmSJEmSJEmSJEmSJEmSJEmSJEmSJEmSJEmSJEmSJEmSJEmSJEmSJEmSJEmSJEmSJEmSJEmSJEmSJEmSJEmSJEmSJEmSJEmSJEmSJEmSJEmSJEmSJEmSJEmSJEmSJEmSJEmSJEmSJEmSJEmSJEmSJEmSJEmSJEmSJEmSJEmSJEmSJEmSJEmSJEmSJEmSJEmSJEmSJEmSJEmSJEmSJEmSJEmSJEmSJEmSJEmSJEmSJEmSJEmSJEmSJEmSJEmSJEmSJEmSJEmSJEmSJEmSJEmSJEmSJEmSJEmSJEmSJEmSJEmSJEmSJEmSJEmSJEmSJEmSJEmSJEmSJEmSJEmSJEmSJEmSJEmSJEmSJEmSJEmSJEmSJEmSJEmSJEmSJEmSJEmSJEmSJEmSJEmSJEmSJEmSJEmSJEmSJEmSJEmSJEmSJEmSJEmSJEmSJEmSJEmSJEmSJEmSJEmSJEmSJEmSJEmSJEmSJEmSJEmSJEmSJEmSJEmSJEmSJEmSJEmSJEmSJEmSJEmSJEmSJEmSJEmSJEmSJEmSJEmSJEmSJEmSJEmSJEmSJEmSJEmSJEmSJEmSJEmSJEmSJEmSJEmSJEmSJEmSJEmSJEmSJEmSJEmSJEmSJEmSJEmSJEmSJEmSJEmSJEmSJEmSJEmSJEmSJEmSJEmSJEmSJEmSlFLIXYAkJdQBTHvyeDaN73FPAMuAx4F1+UqTntazgC1ovIc3ffLXv7xvnwBW5CtNktKyAZHUbrYDXgi86MlfXwi8AJgBbPIMf3cV8GfgD8Cvnzx+8+Sv9wJrm1Kx1LAl8BLgZcAOwPbAtsBWPPN7t06jIXkQ+B3wWxrv27/8urI5JUtSejYgklrdLGAXYE9gX+C5TTrPCuAHwM1PHj8HYpPOpXKYCryOxnt3T+DlTTrPOuBO/vu9eyuwuknnkiRJKqR/Bk6l8VQiZjpGgK8Ab8APa7T+ZgIfAr4PrCHPe/dx4HLgTcBGzf3nSpIkta/nAHOB28jXdDzV8TvgJGDrpv3r1c4qNJ5wXES+puOpjqXA15+sz0ZakiSJxhyOr9F6N25/71hN4yZzx2ZcCLWd6cDHaMzLyP3eXJ/jF8CbaTRMkiRJpbMjjU9m15H/xmxDj1EajcgOya+K2sFUoBt4mPzvxbEc99J42jg59YWRJElqRdvSGJ9eJ/+N2HiPNcA5QGfSK6RWtRGNxuMh8r/3Uhz303giIkmSVEiTady8PU7+G6/Ux3Ianyg7xr64Xkdjyebc77VmHN+lsay1JElSYewG3E3+G61mHzfRvGWClcdU4HM0ht3lfn8181gDDNLYwFOSJKltbQScSf6bq4k8lgPvTXHxlN0bgfvI/56ayONXNJbBliRJajvPA35E/huqXMc3eebdrdWaAo1ll4v+1OOpjpU0hktKkiS1jUNp7D+Q+0Yq9/FDGhvTqX08G7iE/O+dVjjOxyFZkiSpxQXg0+S/cWqlYwh42XguqibMdsAvyf+eaaXjTqA6nosqSZLULB3AueS/YWrF4wlg37FfWk2AVwGPkf+90orH/cALxn5pJUmS0tuIxsZ8uW+UWvlYDRw41guspno5sIT875FWPpYArx3rBZYkSUrtHPLfILXDsRKfhLSaVwPLyP/eaIdjKfCcsV1mSZKktKo0hmnkvkFqh8MnIa3j5cAfyf+eaIejDhwztsssSZLUHC8EHiH/jVI7HCtpbM6ofF6MTz425Pi3sV1mSZKk5noF8Dj5b5ba4ViOq2Plsh1QI/97oF2Os8Z2mSVJkibGHsAq8t80tcPxCI0nR5o4WwK/If9r3y7Ht4DKmK60JEnSBDqS8u4ivaHHfcCssV1mbaBNgZ+R/zVvl+M7NFa4kyRJagsfJP8NVLscdwGbje0yaz1NAW4k/2vdLsdPcRd0SZLUhj5D/hupdjl+CDxrbJdZz6CC+9RsyHEPsPWYrrQkSVJmAfgS+W+o2uW4Gpg0piutpzNI/te2XY4RYJsxXWVJkqQW0QFcQv4bq3Y5zsdJvymdTP7XtF2OZcBLxnaZJUmSWsvGwPfJf4PVLsfCsV1m/Y33kf+1bJdjBbDr2C6zJElSa5oG/Jz8N1rtcnx4bJdZTzoYWEf+17EdjnXAm8Z2mSVJklrbVsDvyH/D1Q5HHXjP2C5z6e1GY7f53K9hOxy+zyRJUuFtDzxE/huvdjjWAYeN7TKX1o7AUvK/du1ynDS2yyxJktRedsKbxPU9VgKvH9tlLp3tgMXkf83a5ThzbJdZkiSpPe0OrCL/TVg7HMuBl47tMpfGlsBvyf9atcvxTVxtTZIkldAhOFF4fY9HgBeM7TIX3jTgZ+R/jdrluBnYaExXWpIkqQDeT/4bsnY57gVmje0yF9YU4CbyvzbtcvwEePaYrrQkSVKBfJL8N2btcvwS2Gxsl7lwKsBF5H9N2uW4h8ZKdJIkSQLOIP8NWrscPwCmju0yF8og+V+LdjlGgG3GdJUlSZIKyk+zN+y4Cpg0pitdDJ8g/2vQLscy4MVju8ySJEnF5nj+DTu+DoQxXen25ryh9T9WALuM7TJLkiSVwzTg5+S/cWuX43Nju8xty5XT1v9YBxw6tsssSZJULu7psGHHiWO7zG1nN9w7Zn2POvDuMV1lSZKkktoed7X2ZvO/7QQsJf+1bpfjQ2O7zJIkSeXmTef6H+uAN43tMrc8m9ENOxaO7TJL0sQo4+RFqZDumMvk2c9i9prIcyuBmUQ2B7YgsAkAkakEVjz5v1eGyFICSwg8SmRo9Qzu37aPVRn/CU9lN+B6YOPMdbSDlcA+wK25C0loS+A23AV+fX0TeDuNp2It5ZEPMXPtarajgy2pswWwBTCDCiHUmQLUY4V11IlPfm9aAjwWRqmNdnD/7H7+mPdfICkVGxCpDd17EtM3XsUbQuAVEXYisBOR5wId44iNQA34NY1J4L+YFPjx1v3cl6LmcToYuJTx/fvKYjmNpu0XmetIYRrwPeClmetoFzcD+wNrchYx1Msmk+BVo/AyIi8NjSWAn8/49675U4Bf1+HOELizXue2rkHuCo3vXZLaiA2I1AZqc5kaN2FnYI8Q2CPCy5m4m/HhGPgedRaxjmu7zmLJBJ33b70PODvTudvNIzSWXr0ndyHjMAW4BtgrdyFt4ifAG4E/T/SJYx+V4aW8sqPCATGyG/BKYKMJOv0jwC0h8N1R+O7sfn4/QeeVNA42IFKLuruPKZstZ/8YeSewLxP3A/3pjAI/IHJRmMSF1dN5bILP3wecPMHnbFf30mhCHspdyBh0ABcCh+cupE3cQ+O1fmSiThghLO5ll3rkbSFyMIGZE3XupxPg3ggXjI5y/nMXcm/ueiT9fTYgUosZ6uVVlcg7gCOBzXPX81QCrI1wfQXOnjmDG0PfhI05HwSOn6BztbtfAm+gsRN2OzkDmJe7iDYxAuwMPDARJ/tDD7Mmw1zgXcA2E3HOMYrAD0Lg66sjF2070HZfA1Kh2YBILSD2Uakt5QgCH6UxXrrd/D4Ezqx08OWZp/FEk89VofHp+BFNPk9RfA/YD1pygYG/55PAx3MX0SaWAK8HftXsE9WO5+WxwgnAYTSGx7WPyCrgq2ESp1RPn5hGTdLTswGRMrpjLpNnTuVtAT4CvDB3PQk8GgILJk/mrC1P4fEmnmcKcDWwdxPPUSRX0bhxXJe7kGfwfuCLuYtoEytpzI+5vZknGTme18UKHwuNJratBVgbIxfUI5+dfUZbz4+S2p4NiJRB7KOyeBnvjvBvtPYwhrF6JEJf5wy+FPqadtO7KY1P91/WpPyi+TqNYTOtumLQIcAluNLZ+lhL43pd16wT1E7gH+IonwcOatY5MhoFLpoU+FiLrPInlY4NiDTBaj28DPhihFflrmUC/DbWObbrDL7TpPwtaex5UYSnRxPhP2g0va1mdxp7vbTCQgutLgLvAc5rRviSeUxb1cGngQ8Ak5pxjhayMsJnV45yyg4LWZ27GKlMbECkCXLvSUzfeA2fJvIByvcp7zc6JjF/5mlNWaVnOxob1c1qQnYRnQicnruIv7IT8H1gRu5C2kTTXr/hbo4IgQGg2oz8FnZPCBxX7eem3IVIZWEDIk2AWjeHRTizVZaqzOTRAHOrA1zRhOwdadzEbtaE7KJp6ifoG2h7GnMYts5dSJs4Ffhw6tChXp5TiXwReHPq7Dbz7biWYzPudSSVhg2I1ET3zGOjqR2cDhybu5aWEfhKHebN7mdl4uQ3ADcAGyfOLaKmzyFYD1vReHK1Q8Ya2sk3gLeTeA7PUA+7VeACoDNlbhsbos6RnWfwg9yFSEVmAyI1Se0Ensco347w6ty1tKBfhA4OacKSmAcBl1L8sesprKSxithtGc49jcYCAi/NcO52dC2NhjHpgg61XuYSOTPC5JS5BbAO+Ex1Bp+cwP2NpFKxAZGaYKSbtxA4l8aNlv6eyENEDmvCJ41zgXMSZxbVchpPju6cwHNOoXFDvecEnrOd/Rh4I6TbX+fuPqbMWMZZwDGpMosoRK6rr+MdDsmS0rMBkRIb6eYkAp/Fr6/1sSbAsdUBvpw49+M0NrTTM6vR2En7DxNwrg4am0gePgHnKoJfAbsCf0wVWDuBLRjl4gi7pcossgj3xcA+s/v5fe5apCLxBklKJPZRqS2nn8jxuWtpO5HPdQ7y0cSp/UBP4syi+j2wC/BwE88RaDyZem8Tz1EkwzQawwdTBQ4dzw6VCjcDz02VWRK1emS/2YP8MnchUlHYgEgJPDmk4WvAW3PX0q4CLKgOcELCyArwTeAtCTOL7E4an4ova1L+p2nNPUha0RIaTz5+nSrwyebjFpxsPlbLQuTg6iD/mbsQqQgquQuQimDGMr6Ozce4RJhf6+a0hJF1GqsG3Zgws8heDFxGc1YR+wA2H+trBY3FFGw+WsuMCDfWjufluQuRisAGREqgHukn4STRsoqBE2rdLEgYuRY4AvhZwswi253GHI2UG2UeCZyZMK/I1tKYH5NsYQabj4Qq3DzrORO6YINUWDYgUgKzB/kxgbeSeJnMMoqB3pEeTk0Y+TiwL/DbhJlFdjBwVqKsPYCv4c+a9RFprOB2farAh3vZrlLhe9h8pHBbHd4c+vweL6XgDwUpkc5+rg6Ro0m8UVhJnTjSk3TH58eAvYChhJlF9j7Gv4rYK4ArgI3GX04pnEijWUti8Ty2XBe5HqimyiyrCP+1bjUHNWHzVKm0bECkhKqDXEBMvppTWX1upId3J8wbAuYASxNmFtnHgd4x/t3tgWuATdOVU2ifg3RDDx/9MJvWO7gBeEGqzBIbChXmPO+Lft+QUnIVLKkJat2cFkPSFZ3KajQEjqj2c3nCzNcCNwNTE2YWVQSOBv7PBvydKo3d1bdtSkXFcwHwDhI9OX1yRb6raexyr/F5LHSwa/V0fpO7EKlobECkJogQaj18FXhX7loKYGWI7F0d5LaEmQfSWPFpUsLMolpLY17I+sxNmAZ8H3hJUysqjmuAQ0k0dyz2UVm8nAtj5IgUeSW3IsKeXQP8MHchUhE5BEtqggBx8QrmxoQTSktsEwLXDM/nxQkzrwbeg/N11sdk4BIam+I9nU1oXFebj/XzIxorhCWb1FxbTr/Nx/gFWBsib7L5kJrHBkRqklecy9rKCg4Hbs9dS7uLMD3UuW5xD9skjP06jXkOemZTaXxav9NT/PcO4Hzg9RNWUXu7G9ifhEt3j/TQR+T4VHklFuuRY6qD7h8kNZNDsKQmGz6WzcNkbgVelLuWAvh9xyR2nnkajyTMXMDYJ1uXzQiwC/CHv/q9AJwLHJOjoDY0DLyOhCuyDXfzvhA4O1VemQXorQ4wkLsOqeh8AiI1WddZLKkH9gIeyF1LATx/3TqueeSDPDth5gk0nobomXUCi4Ct/+r3PoPNx/pKvhz0SC8Hh5Bs35ZSC4FP23xIE8MnINIEWTyPf6x3cCvwnNy1tL3Ad1asY/8dFrI6UeJk4CoaGxbqmf0UeCPwdtJtWlh0K4A9Id28gqEedqtEriewcarMsgrw9VkDvCs4L0yaED4BkSbIrIX8qh7Yj4Tjvksr8sapHZwX+5J9D1sLHEHjxlrP7JU05jYtzF1Im1hDY7WrdM1HLztW4HKbjySumjWD99h8SBPHBkSaQLP7+UmEt4TGDa/G5621ZZyRMO/PNDYqdM3/9bMj/gxZHxGYC9yUKvDhXrar1LkJmJEqs6wifH/NDN4S+tKtRibpmfnDQ5pgXQNcS2Nzt3ruWgrg2JFuTkqYl3yMvkrvBDZsI8entXgeW65rDLuamSqzrALcNbqaQ7ftY1XuWqSysQGRMqgO8A0i3bnrKITAZ0e6eU/CxGFgP+CPCTNVTv8B9KcKWzKPafUObgBekCqztAL3r4F9nvdFluYuRSojJ6FLGY30cCpwYu46CmA0wJurA1yWMPM1wM3AsxJmqjzOB95JonkFd/cxZcYyrqHxhE7j8yiRXTsH+W3uQqSysgGRMooQaj18GXh37loKYGUI7FPt59aEmQcAlwOTEmaq+K4G3kSiXc5jH5XFy7nQXc6TeDzU2b16Bj/LXYhUZg7BkjIKEKsjzCVyee5aCmATIlcP9/CShJnX0Jiv4+o4Wl8/Ao4kUfMBUFtOv81HEmtC5AibDyk/GxAps3Axo/UKbwNuy11Lu4swPcC1i3vYJmHsBcC/JsxTcf0XjZXUVqQKHOnlE0SOT5VXYvUYeHt1kBtzFyLJBkRqCbP7WblqIw4A7sxdSwFU67Do4e7/sVv3eH0OWJAwT8UzRKP5SDapebiX9xP591R5ZRYC87v6uSh3HZIanAMitZChXjorkduB5+Wupd1F+OmUNeyx1Rf4c6LIAHwVeFeiPBXHY8AukG5Sc62HQyJcAnSkyiytwCc7+zk5dxmS/psNiNRiho5nh0qF24CtctdSAN9dMcqcHRayOlHeZOBKGsv0StAYbrUnCXc5H57P7qHO9cBGqTLLKsK5XQO8L3cdkv4nh2BJLWb2GdxTDxwIyT65L7M9plb4WuxL9r1uLXA48INEeWpva2msdpWs+RjqZqdQ5zJsPlK4qnMGx+YuQtL/ZgMitaDZ/fyEwKHAmty1tL3AkbWlLEyYuAI4CPh1wky1nzrwdkg3qfnBeWxfaeTNSJVZVgG+t2YGbwl96VYjk5SODYjUojr7uTkEjqZxo6PxCHyw1sNHEyYuAfYGHkyYqfZyAvDtVGGL57FlRwfXEZiZKrOsAty1Gg7dto9VuWuR9PfZgEgtrNrPN8ElOFOI8JlaD8ckjBymserRHxNmqj18ChhIFbZkHtPqFW4EXpAqs6wi3DdpMntvO8Cy3LVIemo2IFKL6xzgLOCU3HUUQIhwdq2HNyXMvJtGE/JEwky1tnMh3dK4d/cxZVUHlxB4aarMEnuUCvttdSoP5S5E0tNzFSypDUQItV6+ROQ9uWspgJUhsE+1n1sTZu4PXAFMSpip1nMVcBiJdjmPR9CxuJMLY2NhA43PnwLsXh3g57kLkfTMfAIitYEAsTrM+yJclruWAtiEyNXDPbwkYea1wNFATJip1vJ94C0kaj4Aap3023wksYbI4TYfUvuwAZHaRLiY0Rg4CpJ+cl9KEaYHuHZxD9skjL0A+EjCPLWOu4BDId2k5lovnwLmpcorsXqMHNU5yKLchUhafzYgUhuZ3c/KVRtxIHBn7loKoFqHRQ93s3XCzFOA0xPmKb/7gX2ApakCh3t5f4x8LFVemYVIb9cgF+euQ9KGcQ6I1IYePI5qxyRuh6Sf4JfVHVOmsMeWp/B4orwAfIXGkCy1t0eBXYHfpgqs9XBIhEuAjlSZpRU5uXOQT+YuQ9KGswGR2tRQL8+vRG6DpJ/gl9V3V4wyZ4eFrE6UN5nGpPQ5ifI08R4Hdgd+lipweD67hzrX4y7n4xYiZ1cH+UDuOiSNjUOwpDY1u5/fVyIHAn/OXUsB7DG1wtdiX7LviWtpTC6+PVGeJtYaGq9fsuZjqJudQp3LsPlI4YpZNY7LXYSksbMBkdrYrEF+GuFgSPbJfXkFjqwtZWHCxJU0XptfJcxU89WBtwM3pQp8cB7bVwI3ATNSZZZViNyyYpQjw8WM5q5F0tjZgEhtrmuA7xJ4F40bJ41H4IO1Xv41YeISYG/ggYSZaq75wEWpwh46ka06Orgeh0qm8MvVgTclHCopKRMbEKkAOvu5kOCSninEyKdrPRyTMHIE2At4JGGmmuMTwGCqsCXzmDa6lhuAHVJlllWAeydPZp9tB1iWuxZJ42cDIhVEZz9fiPDZ3HUUQIhwdq2bwxJm3gPO12lx5wB9qcLu7mPKqg4uJfDSVJkl9mi9wpytTuWh3IVISsNVsKQCiRBqPZwLST/BL6fIqgD7VAf5z4Spe9LYNX1KwkyN35XAYZBmXkE8go7FnVzoLudJ/IkKu3Uu4P/mLkRSOj4BkQokQKyO8P4YuDR3LW0vsHEMXD0yP+kn2DfT2B/E+Tqt43vAkaRqPiDUuviizUcSa4gcbvMhFY8NiFQw4WJGY2MVn5Sf3JfVtFDn2oeOY9uEmd8EuhPmaezuAg4FVqUKXNzDp4i8N1VeiY1GeFvnIItyFyIpPYdgSQW1ZB7TVnXwfeAluWtpdwHu7YjsvPUgDyeMPQX4UMI8bZj7gJ0h3byC4R4+EOALqfJK7vjOgaTLYktqIT4BkQpq84X8aXQd+xO4P3ct7S7C9usCN957EtMTxp4EfDVhntbfo8B+JGw+Rno5MsCZqfLKLEY+bvMhFZtPQKSCe3Ae23d0cDvuQzBuIXLLE3X2S7gPQQdwMY1hQJoYfwJ2B36eKnB4PruHOtfjLufjFuCL1QE+mLsOSc3lExCp4J67kHtD4ADg8dy1tLsY2H1qBxfGI+hIFDkKvA24LVGent4aGpPDkzUftV5eEepcic1HClfMGnE/I6kMbECkEqj2c0eEQ8AdhBM4ZHFn0uEhK4EDgDsTZup/qwNHQbpJzQ/OY/sYuQbYNFVmWYXILStGOTJcnGY1MkmtzQZEKomuAb5L4F24BOy4RfjAcDcfSxi5HJgDPJAwU/9TD43hbkk8eBzVjkkswqGNKdwxeSMOTji0UVKLswGRSqSznwsjHJe7jiIIgU+N9CQdLlID9gIeSZiphpMh3VOrJfOY1jGJa4lJl2cupQD3ToocsOUpDhGVysRJ6FIJ1Xr4dIR/y11HAYxGOLJrgEsSZr4S+C7w7ISZZXY28IFUYUO9bFKJ3AC8PlVmidU61rHLzDNdqU8qG5+ASCVUHeBjBJcMTaAjwDdGetkzYeZPcb5OKleQ8IlfPIKOAOdj85HCnyLsb/MhlZMNiFRS1WF6Akk/uS+rKUQuHZnPSxNmfgc4GufrjMctwJGQZlJzhFDr5OwQOSxFXqlFVoXIgV0D/CJ3KZLysAGRSipczOjSGbwNuDl3LQUwjTo3DB3PDgkzvwUcnzCvTH4JvImET5FGuvk0cEyqvBIbDXBUdZD/zF2IpHycAyKV3JJ5TFtV4XuEpJ/gl1KAeydNZpetTk23wzbwORq7pmv9/B7YmYST+Ud6+SCRs1LllVgMMLc6wJdzFyIpLxsQSTx0IluNruM2SPoJfln9cg28YdsBliXKC8CXgPckyiuyR4BdgHtSBY70ciSRb+CIgXEL8K/VAT6buw5J+dmASAIam6p1VLiNwMzctbS7ELnliTr7JdzXoAO4iMawIv19fwJ2A/5vqsDhHvYIcB3ucj5+kS90DnJs7jIktQY/0ZEEwHMXcm8d9oFkn9yXVgzsPrWDC+MRdCSKHKWxi/dtifKKZg1wOAmbj1ovrwhwJTYf4xe5sLpZ0j1zJLU5GxBJ/9/sQX4ZK2kn75bYIYurSZc6XgkcANyZMLMI6jSas0WpAod6eX6MXIN7saTw3RV13hX6XNFN0n+zAZH0P3Qt4JaQcPnSMouB9w/38PGEkcuBOcADCTPbXQ9wcaqwB4+jWoksArZOlVlid0xew8EJhyJKKggbEEn/S3WAK2JIt4FbmQX45EhP0uEnNWAvEq7y1Mb6gIWpwu49iekdk7gW2CZVZon9flLkgK2+wJ9zFyKp9TgJXdJTGunlE0T+PXcdBTAa4M3VAS5LmPkqGhsWlnWY0DnA+1OFDfWySSVyI7BrqswSq1Vg51kD/CF3IZJak09AJD2lzn5OJnBG7joKoCPCt0a62Sth5k+AQ2lMwC6bKyHdikrxCDpC5AJsPsYtwPII+9t8SHo6NiCSnlZ1Or0hpBtjX2JTCFxSO56XJ8y8GTgaSjXB93sknKMUIdS6OCe4xHEKKwkc2DXAL3IXIqm12YBIelqhj/rS6WlXGSqxabHC9SPdvDBh5jeB7oR5rewuGk99VqUKrPXyeaKbPCYwGuCoaj+35i5EUutzDoik9bJkHtNWdXAL8LLctRTAEBV27lzAUMLMU4ETE+a1mvuAnYGHUgU+uTiAQwzHLxJ5b+cgX8ldiKT24BMQSetl84X8qTLKvsDvctdSALNjnese+ADREtVhAAAgAElEQVSbJcz8MHBewrxW8iiN5YeTNR+1bo4CBlPllVrkozYfkjaET0AkbZCHe9luXZ3bCczMXUvbi/yoYzJ7zjyNJxIlTgauoHGzXhSPA7sBP08VONzNASFwOTApVWaJndU54JLdkjaMT0AkbZCt+7mvXmFvYFnuWtpe4DWjo1wY+5LdCK8FDgduT5SX2xoa/550zcd8XhMCF2LzkcK3qjM4PncRktqPDYikDTa7n7vqcCgx3WTg0oocMLKc82K6J9IrgYOBXyfKy6UOvB24KVXgQ8fzz6HOtcCzUmWWVuA7K0Y5OvSVagU2SYnYgEgak9kDfA94C4mWQy2zEDmq1pN0PsISGrulP5gwc6LNBy5KFTYyn9mjFa4DnpMqs6wi/HTyag7ZYSGrc9ciqT3ZgEgas85Broox3YZwJTdvpJsPJcwbAfYD/pgwc6J8ioQTxBfPY0vqLAJmp8ossXsmTeKArb7An3MXIql9OQld0riN9HAy0Je7jgJoxnKmrwa+Q/sMO/oSMDdV2KMfZtM1a7mFmHQDyLIaCR3sXD2dB3IXIqm9+QRE0rh1DvCJ6JKmKQQC59R6ku7K/WMaQ+XWJcxslquBD6YKu7uPKWvWcInNx/gFWB4r7G/zISkFGxBJSXTOSDtmv8Q6IlxQ62XXhJnXAkcDMWFmaj8EjiRRoxT7qGy2nAuAvVPkldxKIgd0LeDO3IVIKgYbEElJhD7qy2akXbWoxDYhcvXIfF6aMPMC4F8T5qX0X8D+wIpUgbVlDMTIEanySmw0BN5WHeS23IVIKg7ngEhKyjH3ST1Sr7PL7DO4J2Hm6TRWmGoVQ8DOT/6aRK2HT0f4t1R5JRaBYzoH+GruQiQViw2IpOQWz2PLege3Ai/MXUu7C3DvpMnsstWpPJQukvOAdybKG4/HgF2A36YKHOnlg0TOSpVXch/qHOC03EVIKh4bEElN8dBxbFufxO0RZuWupQB+uQbesO1Ast3nJwNXAfsmyhuLFcCeNOZ+JDHSw1tpDDVzePF4Bc7s7Gde7jIkFZPfpCU1xcwzuX80sA+BpblrKYCdNoLL7+9j40R5a4HDgB8kyhvr+ZM1H8PH80YaT3b8uTZekW9Wp9OduwxJxeU3aklNM7ufuypwKJFVuWtpdxF2m7KMb8c+JiWKXAEcDPwmUd76isAxwA2pAod6eVWocAWwUarMErt52WYcHfqo5y5EUnHZgEhqqln9fJ/22Yei1R20eBlfjumGzz4G7EXCCeDr4QTg66nCho5nh0rkauDZqTLLKsBPJq/h0H/qY03uWiQVmw2IpKbrHOSqENNtMFdmEd65uIdPJYwcBubAhAyV+yzQnypseB5dlQqLgK1SZZbYPZVJHLjVF/hz7kIkFZ+T0CVNmOFuPhZC0pvn0opwQtcACxJGvgb4DjA1YeZfuwB4B4k2Qxw+ls3DZG4FXpQir+RGQgc7u8u5pIliAyJpQg330B+gJ3cdBRAjvLtrgK8lzDwQuAySzTP5i2uAQ0k0DK82l6nxWSwi8roUeSW3pDLK62ct5Fe5C5FUHg7BkjShOgeYHxLOASixUIFzF/ewX8LMq4F3k+gpxZN+DBxJoubjjrlMjptwqc1HEiuBg20+JE00GxBJEypArK3gGODG3LW0uwiT63DJSA87J4w9H/j3RFl305hf8kSKsAihOpUvE7LuX1IIAdbW6xzeOcDtuWuRVD4OwZKURW0uU+NUbgZem7uWAlgWK+zWtYA7E2b2M76hcsPAzsCDacpx+F5CkcB7Ovs5L3chksrJJyCSsqiey4rQwUHECd+HoohmhDrXLu5hm4SZ82k8DRmLJcDeJGw+Rno42eYjjRj4kM2HpJx8AiIpq5H5zKbO7cDs3LUUwO8nRXbZepCHE+VNpjEvZJ8N+DsraOwtkmyX9eFu3hcCZ6fKK7lTOgc4KXcRksrNBkRSdg8dzz+PdvCfRDbLXUu7i/DTKWvYI+F+DpsCtwAvX48/u5bG7urXJzo3tR4OiXAJ0JEqs6xi4ILOft4R0i4yIEkbzCFYkrKbeQb/FUO6ycplFuCVa6dw5T3z2ChR5OPAvsBvn+HPRWAuCZuP4fnsHuFCbD7GLcC1ndM52uZDUiuwAZHUEroW8CMCbyXRcq0lt8fUCt+KRyS7cX8M2A9Y/DR/5kOQbk+S4fm8ONS5DJI1UqUV4MeVSbwl9Pm1Jak12IBIahmd/Vwd0u9DUU6BQxd3sjBh4v005oIs/Tv/7RTg9FQnGurl+aHOjcCMVJkldvdoYM7M03y6KKl12IBIainVAc4PgY/lrqMIInxgpIeTE0beRWNH81V/9XvfAD6S6gQPHke1ElkEbJ0qs8SGQ2TO7H7+mLsQSfprTkKX1JJq3SyIgd7cdRRBCPRU+xlMGHkQcCmNzSQPpTH5fNzuPYnpG6/m+8CLU+SV3JIAu1YH+HXuQiTpb9mASGpJEcLiHs6L8M7ctRRAPQbe2tXPRQkzDwFuorHs7rgN9bJJJXITsEuKvJJbQZ29Os9ItxSyJKXkECxJLSlArK3gvURuyF1LAVRC5Pxa9wbt5/FMriBR8xGPoKNS5xvYfIxbgLUVONzmQ1IrswGR1LJecS5rw0oOI3gzlcCUGLhsuIfX5i7kr0UItSpfInBo7loKINZh7qyBdEshS1Iz2IBIamnVc1kRKhxM5De5aymAqQGuqp3AP+Qu5C8Wd3MqgaNz11EEEU7sGki3FLIkNYsNiKSWVz2dx2KdvYAHc9dSAFvEURbVunlu7kJqPXw0Bk7IXUchRD7XNcCC3GVI0vpwErqktrG4l3+qR/4TeE7uWgrg7nrg9bmWaK318PYI/wd/Do1bDFzQ2c873OVcUrvwCYiktjGrn7vrkTngpmoJ/FNH5LqHTuRZE33ikV4OjPBVbD7GL3BN53SOtvmQ1E5sQCS1ldmD/DhGjgTW5a6l3UV49eg6rri7jykTdc7FvbyBOhcBkybqnIUV+VFHB0eGPr8WJLUXGxBJbadrkGtC5Gj81DeFPWcs5bzY1/yfB0O97FiHywls3OxzlcDd9Qr7zzzNp4GS2o8NiKS2VB3kAiIfzV1HIQT+pbaMM5p5iod72a4jciORzZp5npIYpsJ+uebvSNJ42YBIaludg3w+RE7PXUdBHFvraU5Dt3geW66LXB9hVjPyS+ax0MFenQsYyl2IJI2VDYiktjYKFwP13HUUQYwcEfvSz82IHewK7JA6t4xC5CezNuV3ueuQpPGwAZHUtoZ6eX4lcBV+Lxu3CPdNnsKcZkxorg5wGTAvdW4ZxcCcxUs5K3cdkjQe/tCW1JYePI5qJbII2Cp3LQXwKBX22+pUHmrWCToHOIvAqc3KL5MYeP9IN/+euw5JGivXYJfUdu49iekbr+b7wItz11IAjwfYrTrAz5t9ogih1sOXgXc3+1xlECLd1cHmLh4gSc3gExBJbWWol002Xs012HyksCYEDp+I5gMgQKyOMBe4YiLOV3Qx0D/czRG565CkDWUDIqltxCPoqNT5BrBL7loKoB4Db6/2c9NEnjRczGg98C/A7RN53oKqhMAFI93slbsQSdoQNiCS2kKEUOvkXAKH5q6lCEJgflc/F+U49+x+Vsa1HEzgVznOXzBTCFxS6+FluQuRpPVlAyKpLdR6+TzOHUgj8MlqP4M5S+g6iyV12Bt4IGcdBTEtwg3D83lB7kIkaX04CV1Syxvp5jgCC3PXUQiBL3X2Mzd3GX+xeB7/WO/gVuA5uWtpdxHumzKZnZu5mpkkpeATEEktrdbLvxDyflpfIFdVp/PB3EX8tVkL+VU9Mgd4Inct7S7AduvWctP9PczIXYskPR0bEEkta6SXPWPkPPxelcIPwwremnCjwU0S5TB7kB9HeAuk3wSxbCLsuBFcfn8fG+euRZKeij/UJbWkoV5eReRyYEruWtpdhP9at5r9q+eyIlHkFsDPgHcmyqNrgGtD5Gggpsosqwi7TVnGt2Mfk3LXIkl/jw2IpJYzdDw7VCJXA8/OXUsBDIUKc573RZYmypsKXAm8CPgSsG+iXKqDXEDko6nySu6gkWWclbsISfp7bEAktZShXjorFRYBW+WupQAeI7JX5wKGEuVNBi4BXvdX//9S4LWJ8ukc5PMBFqTKK7MAc0d66MtdhyT9LRsQSS3j3pOYXolcBzwvdy0FsCLCQZ2D/DZRXgDOBfb7m9+fClwF/EOi8zBrgBOBr6XKK7mTa7105y5Ckv6aDYikljDUyyYbr+YaYKfctbS7AGtD4LCuAX6YMPY04F1P8d+2ABYBs1OcKEBcvIK5Ea5PkVd2MbJguJc3565Dkv7CBkRSdnfMZXJHnUuAXXLXUgCxHjmm2s8NCTNPAuY/w5/pAq4DNktxwlecy9rKCg4n8IMUeSVXCZHza73snbsQSQIbEEmZRQizNuGcGJiTu5YiiIETugb5esLIo4DPruef/WcaTcjUFCeunsuKUOFgIr9JkVdyU2LkktrxvDx3IZJkAyIpq1oPpxA4OncdRRDhs1399CeM3B84j8b8j/X1GuBCSLMEbPV0Hot19oJkE+nLbNNY4fqRbl6YuxBJ5bYhP1QkKamRbj5E4JTcdRRBDFzQ2c87Qrp9NF4NfAd41hj//tdpzBlJUs/iXv6pDrcS0wzxKrXA/WsjO28zwOLcpUgqJ5+ASMqi1sPbCHw+dx2FELimczpHJ2w+/pHGUKqxNh8A7wA+maYcmNXP3U8O03siVWZpRbadAjc+8AGbOUl52IBImnDDPewfG8us+hR2nAL8uKODI0Mf6xJFdtJoPp6TIOtjQE+CHAC6FvAjAm+FZP/W0oqwY8dGXH5/HxvnrkVS+diASJpQQ928OsC3STRHoOTuHg3MmXlasqcCmwM3kXYfltMh3RKwnf1cHeDdpHvaU1oB3jBlGd+OfX4tSppYNiCSJsziefxjJYx7aI8ahkNkzux+/pgobxPgShrDr1KqAOcD+6QKrA5wfoSPp8oruYMWL+Mr0aeRkiaQDYikCTE8j656B9eTZmhP2S0JsHd1kAcT5XUA3wR2TpT3t6YAF0O6JWC7BvhMhIFUeWUW4R2Le9PN15GkZ+InHpKabvhYNg+TuRV4Ue5aCmAFdfbqPCPZBn0B+DKNYU3N9iiwK/DbFGERwuIevhYbE941TgF6qwM2dZKazycgkpqqNpepYQpXYfMxbgHWVuDwhM0HwOeZmOYDYEsaE9xnpQgLEGsrOAa4MUVe2UVYMNxtMyep+XwCIqlp7pjL5JlTuTLAfrlrKYBI4D2d/ZyXMPNY4MyEeevrLuD1wLIUYY9+mE3XrOUWort8j1eAtUQOrA7a1ElqHp+ASGqKCGHWVM61+UgjBj6UuPn4F+CMhHkbYkfgckizBOyWp/B4qLAviYZ2lVmEyTFw2XAPr81di6Ti8gmIpKao9XB6hPm56yiEwKmd/Xw4YeIbaQyFmpIwcyyuBA4DRlOEPXQc29YncXtMNMSr5B4LHexaPZ3f5C5EUvH4BERScrVePmLzkcw3qtP5SMK8VwJXkL/5ADgYOCtV2MwzuX80sA+BpakyS2yLOMpNI/OZnbsQScVjAyIpqVo3R8XIf+SuoyBuXjaDd4c+6onyng9cAzw7UV4K7wNOThU2u5+7KnAokVWpMktsdqxz3QMfYLPchUgqFodgSUpmuJsDQuBy3OV83AL8ZNIa3rjVF/hzosgqcDuwTaK81LpJOCdlpJuDCFyK78Xxi/yoYzJ7zjyNJ3KXIqkYfAIiKYnh+bwmBC7EG74U7qlM4sCEzcd0GnM+tkmU1wz9wBGpwjoHuSoEjk2VV2qB14yOcmHs82tbUho2IJLGbXEv/xTqXAs8K3ctBTASOthr5mk8kihvE+Bq4MWJ8pqlAlwA7JUqsNrPuUBfqrxSixwwsoyvRkdOSErABkTSuAzPo6seuQ54Tu5a2l2A5bHC/tXTeSBRZAeNm/pdE+U12xTgEuClqQI7B/gEIdtyw4US4O0jPXwmdx2S2p8NiKQxq53AFqHCIuC5uWspgJVEDuhawJ2J8gJwDvCmRHkTZRqNnc13SBVYnU5vCFycKq/MAnx0uJfe3HVIam82IJLGpDaXqbHOlQT+IXctBTAaAm+rDnJbwszPAO9JmDeRtgSuB7ZOERb6qC+dzlHAohR5ZRcipw/38s7cdUhqX47llLTB7pjL5FmbcBWBfXPXUgCRyHs7B/lKwswPknB/jYx+CbwBWJYibMk8pq3q4BbgZSnyyizAWgIHVfu5IXctktqPT0AkbZAIoTqVL9l8JBL5aOLm40hgYcK8nHYCLgM2ShG2+UL+VBllX+B3KfLKLMLkGLl05Hhel7sWSe3HBkTSBlnczekRh18kEflC5yCfT5i4B/A1ivW9fXfg/5Do3zRrIY9OCuxH5KEUeSU3lQpX1k5wGKakDVOkH1KSmqzWy7/G4ATURL5V3Yx5CfNeAVxBoqcFLeYtwJmpwrbu57467EOioV0lt0UcZVGt24UoJK0/54BIWi+1Ht4eG59E+31j/L67YpQ5OyxkdaK87Wnscp5k0nYL+xikWwZ2qIfdKnADxWzaJtrd9cDrZ/fzx9yFSGp93khIekYjvRxI5DLc5TyFOyavYfeEu5zPotF8bJsor5VFYC7w5VSBtR4OiY29RzpSZZZVgB9XJvHGmafxRO5aJLU2h2BJelrD83kNkQux+Ujh95MiByRsPqYB11KO5gMaH5qdDRyWKrA6wBUxcFyqvDKL8OrRUS6MfX6vkPT0bEAkPaWhbnYKda4HpuaupQBqFdhr60EeTpQ3BbiUhLuGt4nku7t39XN2CHw6VV6pRQ6oLeXc6AgLSU/DBkTS3zUyn9mVwDXAjNy1tLsAyyPsP2uAPySK7AC+AeyZKK/dbAxcDbwkVWC1n49TnOWL8wocXevls7nLkNS6bEAk/S+1E9iCOouA2blrKYCVBA7sGuAXCTP7gcMT5rWj6TSGn22TKrA6Qm9ozAfReEVOGu7lhNxlSGpNNiCS/ofaXKbGUa4CXpi7lgIYDXBUtZ9bE2Z+EpIu39vOqsAiEq3+FS5mdOkM3vZkpsYpRE4d7uFdueuQ1Hocoynp/7tjLpNnTeVqGnskaHwikfcm3uX8/cAXE+YVxU9pbMKYZHL/knlMW1Xhe4TSza9JLsDaAAfPGuD63LVIah0+AZEEQOyjMmsq52PzkUSAf0vcfBxCws34CuaVJNyEcfOF/KljMvsC96TIK7MIk+twyUgPO+euRVLrsAGRBMDIMk6nseO0xivyhepA0km4uwEX4l4VT+eNwHkk+rk28zQeGR1lPyIPpcgruanAlbUeXpS7EEmtwQZEEsM9fDxAT+46CiFyYXWzpHM0Xgpcibt1r4+3AqelCnvuQu6tN54ILkuVWWKbR1hUO4Hn5S5EUn7OAZFKrtbL3Bg5J3cdBfHdFaPM2WEhqxPlbQ/cBsxMlFcWHwE+nypseD67P7kfjk3geAV+VYddZ/fzx9ylSMrHBkQqsZFuDiJwKe5yPm4RfjplDXsk3OV8SxrNxwsS5ZVJBN4L6ebg1Ho4JDaW6HUY3DgF+EllEnvMPI0nctciKQ+HYEkltbiXNwDfxuYjhd9PjhyYsPmYBtyIzcdYBeAc4E2pAqsDXBEDx6XKK7MIr6qv49t3zGVy7lok5WEDIpXQUC871uFyAhvnrqUAahXYa+tBHk6UN4XGJ+0uATs+HcAFwK6pArv6OZvAJ1PllVmE/WdN5bzY532IVEZ+4Usl83Av23VEbiSyWe5a2l2A5bHCnFkD/CFRZIXGTfNeifLKbhPgauDFqQI7+zkZWJgqr+TeVlvOYO4iJE08GxCpRBbPY8t1kesizMpdSwGsJHBg1wLuTJg5AByRME8wHbgO2CZVYHUGPSFwcaq8UoscN9LDibnLkDSxbECkknj0w2xan8T1wAtz11IAowGOqvZza8LMT0LS5Xv136rAImDrFGGhj/rS6Rz1ZKbG75SRHt6duwhJE8dVsKQSuLuPKTOWcTWwd+5aCiASeW/iXc7fD3wxYZ7+vp8Ce0CaxQKWzGPaqg5uAV6WIq/kRgMcXh3gityFSGo+n4BIBRf7qMxYxvnYfKQR+Wji5uMQ4MyEeXpqryThpo6bL+RPlVH2BX6XIq/kOiJ8s9bNLrkLkdR8NiBSwY0sYwHw5tx1FMRZnYPpNrgDdgcuxL0lJtIewNdI9PNv1kIenRTYj8hDKfJKbhMC1wx1s1PuQiQ1lw2IVGAjPZwcoDt3HQXxreoMjk+YtxNwGe6uncORJFzJaut+7qtX2BtYliqzrCJMrwSuq53A83LXIql5bECkghru5n1AX+46CiHwnRWjHB36qCdK3B64CZiRKE8b7oPAR1OFze7nrjocSmRVqswS64yjLHroRLbKXYik5nASulRAI70cTORSHNozbhF+OmUNeyTc5Xwr4DZgh0R5GrsIzAW+nCrQr710Avxk0hremPBrT1KL8AmIVDBDPexG3XkFidwzaRIHJLwBmgbcgM1HqwjA2cBhqQI7+7kyRo5NlVdmEV61dgqX393HlNy1SErLBkQqkKFedqzA5QQ2zl1LAdRCB3vNPI1HEuVtTGNX7pcmylMaHTR2n399qsCuQc4BPpEqr+T2nLGU82Kf9ytSkfgFLRXEw71sV6k7ryCFAMtjhTnV03kgUWTym1wl9Zfm8CWpAjsH6CNwRqq8Ugv8S22Z11IqEhsQqQAWz2PLdZHrCczMXUsBrCRyQNcC7kyUl3yYj5piGnAtsG2qwOp0ekPg4lR5JXfsSA8fzl2EpDRsQPT/2rvvcDuqcvHj3zknhARIoYRyEgQRsCBg49roCNItV6+gWBAvCgJJEAFBJHalmISioldRKYKKioA0AVGwYEUEFBQEUoBQAjGBlLPn98ciP2I4Sfbes2avmb2/n+dZz/XxxjXvrL33nHln1nqXau7RIxnd6OcqYMvUsXSBwSzjXQPTuSlin58BPhCxP5VnALgW2CBGZ9kUGo+P4SBCxTMV94WZEzkkdRCSirMKllRjt09h+Ni5XA7snjqWLpADHxg/jW9G7PNw4OyI/akzfk/YsHBejM7mHMuoRYv4OfCKGP31uMEM/mdgGj9MHYik9vkGRKqpfAp9az/B+Zh8xJFzXOTkI+pmd+qoVwGXEmmTyHGnMK9vkD2Bu2L01+P6czh/1mR2SB2IpPaZgEg1NWsu0/Kct6eOoytknDV+OqdG7HFX4Ft4ja2zXYBvE+kz3OhM5gzL2IucB2P01+NGknPZjKPZNnUgktrjH0ephmZN4lPAkanj6Ao5Fw6MYWLEHqM+PVdS7wDOitXZBlO5p9HHHsDcWH32qhzGZA1+OnsSm6aORVLrTECkmpkxmQ/lcFLqOLrEz+auzcHZFBqR+tscuBxYK1J/Su8w4MRYnW08ldsa8BZyno7VZw8baMC1D02MUzRAUue4CF2qkVmTeHMOP8BdzgvL4JZhi9gt4i7nA8DN4BPZLnUkEd+GzJzI/mRcAgyL1WevyuF3wxexa8TfsqSS+QZEqokZR7NLDhdh8hHD3X3D2C/iDcsYwh4Sm0bqT9UzDXhbrM7GT+cnWcaHY/XXyzLYbvFwLr37SKc9SnVhAiLVwAMT2SZr8ENcVxDDzKyf3Tc8jYcj9TeSyLtoq5L6gQuAN8TqcGAqXyPn5Fj99bhd1+jjW/kU72ukOvCHKlXc/Ufygr6Ma4CxqWOpuwyeaOTsPXA690Xqsh84HywJ2iOGA5cAL4/V4fjpfCqH6bH662kZB8x63NLXUh2YgEgV9uAxrN/fz5VE2pm5xz1Fzr4bT+cvkfrLgHOAt0bqT/UwGrgK2CJWh+PHcjTwvVj99bSMw2dN4mOpw5C0ciYgUkU9eiSjBxfHvdHpYYMZvHNgOjdF7PNzwCER+1N9rA9cCWwYo7NsCo25Y3k3cE2M/npdDp+dNYkPpI5D0opZBUuqoNunMHzsXK4g4nzzHpaTccj4qZwbsc/DgbMj9qd6+guwE5H29ZhzLKMWLeYGcl4Zo78eN5jlvGNgOpekDkTSc/kGRKqY/O30rz037mLXHnds5OTjQHCeuQDYBuIVhxh3CvP6lrAX8PcY/fW4/hzOnzWRHVMHIum5TECkCskhmzWBr+QRy332tIxTx0/jtIg97gaci9dOPWsXIpbH3uhM5vQvYa8MZsfor6dljMgzLpsxyQp1UtX4R1SqkNmT+DQ5/5s6ji5xwcAYjo/Y33bAj7EUsp7rzUTcpHDDs7h3MOONZDweq88eNjqDK2ZPco8eqUpMQKSKmDGJw3I4MXUc3SCDK2Yv4OBsCo1IXW4OXA6sFak/dZ8PAZ+I1dnGU7mtD95CztOx+uxhAw249qGJVhOUqsJF6FIFzJzMAeRcgA8FCsvglr5h7LrhacyP1OUAcDPucq7mTATOiNXZzInsT8YlwLBYffaw3w8fzq7jTmFe6kCkXmcCIiU2YxK7ZvBTnNpTXMYdDdhh46k8FqnHMcCNwLaR+lP3awAHAN+P1eGsyRya55wTq78ed/2CQfbe4kwWpg5E6mU+bZUSmjWZV2WuK4hlZtbH3hGTj5GEaVcmH2pFH3A+sHusDgem8rU84vSuHrfrGn18K5/i/Y+Ukj9AKZEHJrN5nnM5MCp1LF3g0Qx2Hzid+yL11w9cAGwfqT/1luHAD4BXxOpwwjQ+ncO0WP31tIwDZs+NVzRAUutMQKQE7j+Cgb6ca8FFkREsAN40MI07I/WXAV8D3hKpP/Wm0cBVwJaxOhw/lo8AF8fqr5flcNiMSRb9kFIxAZE67J/HMaZ/GFfgoubCMljcB28bP42bI3b7ReD9EftT7xoHXAlsGKOzbAqN2Qt4N3B1jP56XQafmTmRI1LHIfUiF6FLHfTAZEb25VwN7JA6li6Q5/D+CdP4VsQ+j8BdzhXfbcCOwNwYnc05llGLFnMDOa+M0V+PG8zhgAbHmSIAACAASURBVAnT+EHqQKRe4hsQqUPyt9Of5ZyPyUcUecZHIycf7wSmR+yvmy0ibL53U+pAamJr4EfAiBidjTuFeVkfewJ/j9Ffj+vP4IKZk3lD6kCkXmICInVADtmsCZyTwVtTx9IlTpkwldMj9vcG4Fy8JjajARwEXArsC9yaNpza2Bm4iFDgoLCB03mEPnYHHojRX48bTs4lM4/m5akDkXqFf2ylDpg1kc+Rc0jqOLpBnnH+wDSOj9jlfxGeTg+P2Gc3m8Sze1w8AewD0aqPdbs3AWfH6mz8l3igv8HeZDweq88eNpoGVz1wFFukDkTqBSYgUslmTuZwsqg3zD0rgyvGj+HgDPJIXW4BXAasFam/bvdxnrtGZiZhz4uHOx9OLX0QmBKrsw3P4K95zj6EanAqZv3+Pq58+KNxigZIWjEXoUslmjmJAwmbkpnsF5TBb/uGsduGpzE/UpfjgZuBTSL11+2+DHx4Jf//7YDrMZlr1iQirjmaOZn9yPkhMCxWnz3sL4tgp+dPi1M0QNJzmYBIJZlxFLtlfVyBu5zHcHsjY8eIu5yPBW4EtonUX7f7LmHdR2MV/2434Kc4na0ZDeBA4HuxOpwxkfdkGd/Cv+2FZTk3zG+w1xZnsjB1LFI38qmsVILZE9ku6+PHmHzEMCPL2Tti8jESuByTj2b9DDiYVScfANe18G97XR9wHrBHrA4nTOc7OZwUq79elmfsskY/F+Vvj1M0QNJ/MgGRIntgMps3Mi7HqSgxPJrBHgPTuT9Sf6sBPwBeH6m/bncLYUf4Vp4CXwgcVU44XWc44fsYbT+PCdP4bJYzNVZ/Pe7Nswc4K3UQUjcyAZEiuv8IBvpyrgXWTx1LF1hAg/0HpnFnpP4y4Bxg70j9dbs7gL2Af7fxvz0bOCVuOF1rFGG39BfG6nCj6Xwkg+/E6q+X5RkfmjmRT6SOQ+o2JiBSJP88jjH9w/gpsGnqWOoug8V98LbxZ/CriN2eQpgepFWbQUg+ikx7Ox74Rpxwut44QhKyUYzOMshnLeADwNUx+ut5GZ+cNdG3elJMLlSTInhgMiOfefPh1J7iBsk4aPxULorY50fxiXyzHgF2AP4Woa9+wiJrN+Bszm3AThBnX485xzJq0SKuBl4bo78eN5jlvGNgOpekDkTqBr4BkSLoyzkXk48YlpSQfLwL+GLE/rrZAmB/4iQfAIOE6lk3Reqv221N2BRzRIzOxp3CvBGD7EkW9U1ir+rP4fxZR8VbryP1MhMQKYK+nNOBR1PHUXODGbwvcvKxD1iWtEmLCG8qfh2536eAfYFbI/fbrXYCLibSfh7rnsmT/f3skcHPY/TX434862n+kjoIqRv4R1mKZPZktmrkXAMMpI6lhgYzeO/ANC6I2OerCWVh14zYZ7eKvifFEAYIGz9uWuIxusnXgUNjdfbgMazZWMLlOewcq89eksG3NxrLB7IpLEkdi9QNTECkiGYczZZZg2uB56WOpUaeyuCggWn8MGKfLwF+CawTsc9uFnVX7pXYnJCEWCWuOZ8h4r4ec45l1KLF/Iic3WL12SNOGZjG8RnkqQORuoVTsKSIJnyJu+hje+D21LHUxANZgx0iJx8TCBWFTD6aczKdST4A/kGYjtVOad9e9HFCchjFuFOYNzCGPck4I1afXa4BHDd+GseZfEhx+QZEKsEzVbHOAt6fOpbKyvjVasP47/VP5cGIva5LePPx4oh9drOvAIcnOO5uwBXA6gmOXTc58D4i7+sxaxLvysM0r5Ex++0ij2YZBw1M5arUgUjdyAREKtGMibwny/gq/pH/TxlfnzuGI7aawqKIva4BXAu8LmKf3ewiQoWwRqLjHwicj2/im7EY2I/I+3rMmMRr++CSPNL+I10j4w/9i3n7hmdxb+pQpG5lAiKVbPZEtmtkfB/YJHUsFTAPmDR+Gt+M3O9qwKWEzfO0atcRKoQtTBzHh4GzEsdQFwuANxC5StkDkxnfl/OtZ/oWnDl3LMdEfjgiaTkmIFIH3HcYaw8bwRfJ+QC9+7u7aVjGezeYyj2R+82AbxKmqWjVfgfsSnXWYXwBOC51EDXxCLA98PeYneaQzZ7IkXnGF+jdt7X35TlHTJjO5akDkXpBr94ISUnMOopX5v2cQ947m1ll8AQZJ280g7Oy7zNYwiFOB44uod9udDfhBvbh1IEsIyOsRTgkdSA18QBh09MHYnf80GQ2W9LgbDL2jN13hS0h48urLeTE9b9cmaRc6nomIFKH/f5QVttoJEeT8QnCuoVu1cjg/GGrcVzkhebLOh74fEl9d5uZhBvX+1IHMoR+wh4kb00dSE38FdgReLyMzmdO5gByvkj3lxP/dSPnQxtPd3NBqdNMQKREZh7NxgxyPBmH0H3VgH5GH8eO/xJ/KvEYBxEqA3kdW7VHgR2AO1MHshIjCYusd0gdSE38hlBNbEEZnd87hRHDH2ciGccDY8s4RkK3k/GZgTF8L5uSrAiD1NP8wy0l9uAxrD84yNHkHEX951/fnDc4ecIZXFfycfYFfgQMK/k43WABsDvwq9SBNGEMcCOwbepAauIywluj0nbnnnMsoxYt5HAyjqXme+vk8FdyTh0/iwtKmg4qqUkmIFJFPPxRNlyyiGPyjPcR9rOoi4V5xvdzOHPjqdzSgeO9BvgZsGYHjlV3i4H9oVZ7GQwQdkvfNHEcdXEe8F5K3ihvzrGMWryQg/OMw4EXlnmsEtycwWkbTeNSNxSUqsEERKqY26cwfO257JvDezPYKw8lZisnh79mOd/pX41vb3haxxY1bwX8gpo/ie2QUjaw65DNgZuADVIHUhOfA07sxIFyyGZN5A3A+8h4M9Vdx3ZflnHe4CDf2fgM7k4djKT/ZAIiVdiDx7B+YwnvzOG/M3h1BZKR28m5LM+4eMI0/tzhY08gTCPauMPHravJwLTUQRSwHXA9sFbqQGriaGBqJw8451hGLVzMW7MGbyJjDxK/lcxgdp5zVd7PeeNHc6PrO6TqMgGRauLhw1lr4TB27O9jtzwsPt2Gkn/Dz/xBvzHv48bV4JoS9vBo1nrAL4EXJTp+3XwSmJI6iAh2BX5K9xVpKEMOHAx8O8XB753CiNWfYOc8Z5cMdsrhlZS/RmsuYc3QdX2DXLfRmdxR8vEkRWICItXUrI+wHg1ekTfYNst4aZ6xeZbz/Bw2armzjMfJ+SfwT+BOMv6c9fHngdMrUbJ1DcKaj9emDqQmvgocljqIiA4ALgD6UgdSA5VZ8zPrUNYYHMnWWR8v72uwbZ6xeQ6bZaG0b6uJyUJy7s0z7u2DOxsZfyHn1vEzuc3F5FI9mYBIXeaByYzsy1gvb7BuFv7vCJaprpX18TTwVAOe7O/job6MRzY8jfnpIl6p1YCfQE9tjFbEj4G3QdfdlB0OnJ06iJqodNWz/O30PzzAeo0+1oNwfWrA6GX/TV8fT9BgARmPZoM8suGZPOLicUmS1AkZYTpJbmuqXUd3T1X6POnHuC5tDk5XlCRJatmXSH8jV5f2O2BUe8NcGxnwf6Qf67q0B+j+ncwlSZKiOYH0N3B1aXfTO+Vq+4FLSD/mdWl/xZLVkiRJq/RuoEH6m7c6tBn03oZ9Iwl7waQe+7q03+CmnZIkSSu0H6GST+qbtjq0ucC27Q1z7Y0B/kT6z6Au7TLKL4krSZJUO68B5pP+Zq0ObT6wfXvD3DUGgHtJ/1nUpZ2HlS8lSZL+v5cCj5H+Jq0ObRGwV3vD3HU2Bx4k/WdSl/b59oZZkiSpu2wM3E/6m7M6tAbwvrZGuXu9CphH+s+mLu3o9oZZkiSpO6wH/I30N2V1aZPbG+autyvwNOk/nzo0k1hJktSz1iDs1pz6hqwu7dPtDXPPOICwA3zqz6kOzWl8kiSp56wGXEX6G7G6tHPaG+aeczjpP6u6tPnA69obZkmSpHrpAy4i/Q1YXdqPsYRqKz5L+s+sLu0R4MXtDbMkSVJ9TCX9jVdd2vXAiPaGuWdlwNdJ/9nVpT0APK+tkZYkSaqBk0h/w1WXdiswtr1h7nn9wA9I/xnWpd0OrNPWSEuSJFXYoaS/0apLuxvYoL1h1jNGAjeS/rOsS/sNsGZbIy1JklRB+wOLSX+TVYc2E9i0rVHW8kYDfyL9Z1qXdjmuN5IkSV1gJ+Ap0t9c1aHNBV7W3jBrBQaAe0j/2dalnU9YRyNJklRLWwOPkf6mqg5tAbB9e8OsVXgB8CDpP+O6tFPaG2ZJkqS0NgNmkf5mqg5tEbBPe8OsJr0KeJL0n3Vd2jHtDbMkSVIa44C/kf4mqg6tARzc3jCrRbsCT5P+M69D83spSZJqYxTwB9LfQNWlfaS9YVabDgAGSf+516EtAvZub5glSZI6YzhwNelvnOrSPtfeMKugw0j/2deluTZJkiRVVh/wPdLfMNWlfRurDaX0GdJ/B+rS5gLbtDfMkiRJ5Tmb9DdKdWkXE3brVjoZfmdbafcDG7c10pIkSSX4OOlvkOrSLsLN3qoiA84i/XeiLu12YGxbIy1JkhTZa4BHSH+DVPX2PUw+qiYDppP+u1GHdjZhqqUkSVIlbAU8QPqbpKo2k4/qMglZdftC26MrSZJUoucDd5H+Zqlq7Uxc81F1GXACluhdvi0BDi0wrpIkSaUbB1xP+hunKrSFePNWN/sBT5D+u1OF9hiwb7HhlCRJ6owMOI7w9DT1TVSq9giwS9GBVBJbAneS/juUsv0O2KzoQEqSJHXarsBs0t9Mpbh527T48CmhtYFLSP9d6nRrAKcDqxUfQkmSpDQ2BH5I+hurTrSnCesIXGzePf4HeJj0361OtPuBfeIMmyRJUnq70d3TWv4MvDzaaKlK1gbOIf13rKy2iFAFbFSsAZMkSaqKkcCnCG8KUt90xWpPAMfiW49esB/dl0TfALwk5iBJkiRV0fOBr1LvRGQBcAqwbuSxUbX1A+8F7iH9d7BI+y2wP6FghCRJUs8YD0wD5pP+hqzZtgj4MjBQwnioPoYDhwEzSP+dbKXdCOxRwnhIkiTVyvrASVR7E8N7gI8TkiZpqdWAtwJXUN2y0/8GzgN2KGkMJEmSau11wFcIm6ClvnF7GrgY2B3oK/Ok1RU2Bk4G/kX67+4gcB1hupiLyyVJkpqwOrAXcCrwB8INVSdu3B4CLgAOAMaWfpbqRhnwSuCTwC107s3IbOBC4BBCMiRJleTiM0l1sQ5hZ/HXEqr2vBDYhLAouF2zCFWN/g7cCtwE3FEsTOk5RhGmP70aeBmwLfA8iv0Nfozwvb2T8N29Dri9WJiS1BkmIJLqbHVgS+AFwDhgrWXasm8v5hHmwT8KPAL8k3Dz9kQng5WWMYLwvd2M8N0dR9hvZC2e3YX8KcL3dh4w95n/fD/wN2BOh+OVJEmSJEmSJEmSJEmSJEmSJEmSJEmSJEmSJEmSJEmSJEmSJEmSJEmSJEmSJEmSJEmSJEmSJEmSJEmSJEmSJEmSJEmSJEmSJEmSJEmSJEmSJEmSJEmSJEmSJEmSJEmSJEmSJEmSJEmSJEmSJEmSJEmSJEmSJEmSJEmSJEmSJEmSJEmSJEmSJEmSJEmSJEmSJEmSJEmSJEmSJEmSJEmSJEmSJEmSJEmSJEmSJEmSJEmSJEmSJEmSJEmSJEmSJEmSJEmSJEmSJEmSJEmSJEmSJEmSJEmSJEmSJEmSJEmSJEmSJEmSJEmSJEmSJEmSJEmSJEmSJEmSJEmSJEmSJEmSJEmSJEmSJEmSJEmSJEmSJEmSJEmSJEmSJEmSJEmSJEmSJEmSJEmSJEmSJEmSJEmSJEmSJEmSJEmSJEmSJEmSJEmSJEmSJEmSJEmSJEmSJEmSJEmSJEmSJEmSJEmSJEmSJEmSJEmSJEmSJEmSJEmSJEmSJEmSJEmSJEmSJElSUVnqALRSw4G3AnsA44G+tOEUMgg8BtwL3AH8Eri/g8ffEXgzsCWwegePW4YngFnAncBvgVsJ41sVY4AdgK2BFwLrAiOSRjS0ecBDhHH8PfA7YHGiWJ4HvI7w/RwPjALmPxPjXcBthM96SaL4itoQeD3wImAC4fwWEs7vbp49v4UlHPv1hN/+C4GRLf5vHwfmED6D3wB/JN13pB3jCd+r7YANgPUIf1da8RDhen0xMDdqdCu2FrA9sC3hc1uP1j+7Tvg38DDwN8I15BbK+Q43Y4AwZlvy7G/sqWdivAv4K+E7vChRfEWNI/yWXwxsTDi/xYRryD949vyeShWg1C1eC/wTyLu43QGcCKwfacyGsj5wTQXOtcz2CPAV4BWRxqwdw4F3Az8j3CSnHpN22pPAd4CdIo/NimxA+P7f2UJ83wJe06H4ihoDHAX8CWiw6vObT7jJfSNxHo6NA65s4ritfke+TrU/g7WBI4E/E/fcHwUOLDHuYcA7gJ8SbixTXw/aafOB7xIeGnbCusBHgb80Gd+/gQvp3DWuqLWADxESu0FWfX5PAT8C9qPeD2ylZHYk/JBSX0w71RYAXyLcsMS0LuHJT+rz62S7EnhJjMFrUga8n/A2K/W5x2y/IjwEKMMYYCrhe1/kc96qpPiKWh34GOGNZ7vn90dgtwIxdOK3fy3hLV9VDAeOIbwhLeucG8ChJcR+IN33wO0PwC4xB2kZawKfJzz9bze+G4CXlxRfUcOAyYS3S+2e31+BfTsduFRnYwivvFNfPFO02cCexYfw//tBBc4pRVsEnET5T4A2Bn6R+FzLbIPAGcSdsrcn4XseI76ngWOp1lTalxH+8Mf6DL5FeAraqh9GjGFlbQnhRrC/jRhj2pYwDagT57yIMA0mhg2AqzsUd4rWAL4BrBFpvCC8vbgvUnyLgU9SrbcFLyIkb7E+g+8DYzt6BlJNfYz0F83UF+yTCo9ieDLZzLSPbm5X0t7NWzO2J8yNT32OnWi3EG6UijqBcr6TF1ONdU1vI0xBiX1+dwCbthDHtiXEsKp2PWHKVwrvodjbtHbaeRHifiVhLVvq33cn2m2EBzZFHUk5U1wvI26S1K69KOcN3j2EtUSSVuK3pL9YVqGdRbEnuydU4Byq0H5L/Kltb6ScG80qt7sICzvb9Uqam8PcbructEnIgZS79udHLcTyiRLjWFm7jbBYupMOI82Dlscp9tR8e8qdKlbFdj+weYEx25Jy18ZcT9okZD/CAv4yz0/SSswl/YWyKu0zBcbx3ArEX5V2A/FuTl9NWMiY+pxStL8SFvi267CS4/sxaaYC7UO5N0Z30VqhivNKjGVV7Y+E6jyd8F7SvuXdsM24tyYkMKniTtn+QbG3qe+i3AcZ15LmQcbOlLvu9X7ivIGSulrqC2TVWrtVVy6pQOxVame2OY7LGgfMqMC5pGyXU+zN3KdLju+rBWJrR9kJ6QxgkxZjurTEeJpp324x3na8lM5Pu1q+tTOlZS3g74njTt1+TrEHBUeUHN+FdHZNSNkJ6RzCuhJJq5D64li1NhfYqI1xNAF5bturjXFclmMa2gcLjuMZJcf3qYLxNWsrQmnWss5jLmE9R6tSJyA58M424m7WSMK6mNTn2E4Ccm4F4q5C+2gbY7esU0uO7+yC8TVrM+IV5Riqzae8aoZS10l9YaxiO7+NcfRm+bntblrfhGypPSsQf1Xao4Qyr+3qJ1RmKTPGyQXia8YE4lXiGaotIKwTaEcVEpBZlDef/rgKnF9O6wnI67AwyNI2j7BJZLsy4Jslx3higfiaMY5y34YtIqxXlNSk1BfGKrYGre95YAIydDukxXFc6lcViL1KbUqb47jUcMJ867LiaxDWCJRhXcp9Ar8EeEuB+KqQgOSERCG2tSm2v0rM1moC0u0bwrbaprY4fsvrJxRnKDPGIwvGuCKjiVtqd/nWIFSHk9SC1BfFqrZzWhxHE5Ch219bHEcIr7BTx1219gjtv01aajRh0XJZMS6i+LS75a0B3FxizA3CxpZFVCUBeYo45ZuXlarC11CtlQRkqwrEW7X2b4oXLBgJ/LLEGAeBtxeMcXnDKT8ZLfsNsNSVUl8Uq9oeo7XqHCYgK24va2EcIcwHTh1zFdv+LY7jUNan3B275wOvjxAnwGrAT0uMNaf43HioTgKSAydHOJ+lVqfc+fKttlYSkM9VIN4qtne3MIYrMga4tcQYFwJ7RIgTwuL275UYa06x6plST0t9Qaxy26WFcTQBWXFrdW7vvyoQcxVbrIpTL6DcG8vHgW0KxpgRdiUvczxjVGqDaiUgDxOeUsfwwQqcz7KtlQTkLxWIt4rtuy2M4cqMp9zr9JOEvYyKml5ijDmhAl2RKoVST0t9Qaxym9LCOJqArLhd3cI4blKBeKva7mxhHFdlG8otRTmD1nYTX97pJcaWAxcQr/RnlRKQHDg0wjn1UY3KV8u2ZhOQdSh374o6t1lNjmEztgAeKjHWouVsP1libDnwE2BYgfiknpf6gljl9oMWxtEEZMVtZgvjuG8F4q1qWwKMaGEsV2UX4OkS472b9tYkHF9iTDlhMX7R9TTLqloC8neKJ1dvqcB5LN+aTUB2qECsVW5FKuot778IFbbKirXdDf0+VGJMOaFISspd3NWGTm42IxW1ReoAusQAsGaT//YFZQZSc/3A8yP2dwNwAOFpcRk2By4jbAbXrIMI8/fLcgvh5npRicdIbUvCbvFFHBMjkES8hqzc5hH7Kvv3tDFwJeGtVrPeDJxVTjhAKKyyD6F0t2rEBER1sl7qALpIs0/dHPOVi/n0EuDHhJ2Oy7Id4Q1BMwUd9iVsHFfWnOq7gf0I1YC63UcK/G//i7CHRl15DVm52OPzM+BgQkW5MmxFKEbRzEOsnYGLKLbz+8rcS1gg/3hJ/atEzpfrTo8ChyU8fj/wUuC/KTZndHmjI/bVrFOA3yc47lKbEG4EdyTujWCzY9nsm5JmPUqognIrobJZp2xIKEn7BkI1p1jK+E5+FdiIUHK1DLsSbgrexorftrzmmX9T1t+ImcDuhEXaVXUH8DFC1biTKfbAbidC8ve7Nv63MfYT+QPhTdZ2hCl1ndTKG7dmzCVs5PknQjnsThlH2NhuT+JOGSzjGnIhYc+Yst48vBq4mPC2ZfEK/s02hH1KWqle2YpHCNf02SX1L/WcWPM0qyAjPPmLNc+zlSelsdaAvKmN8y7D6wh/eGON5dZNHndqxGNeQfG690W9mPD7iHVORafWrEzZFWO+soLjbkVIFMs67iPAS4oMzCrEWgPyzmX6jLHr9EVtnMsWFF/AvZD/3HV7RqTxaXYNyJRIx8sJ0xTXbvK4ZXkBcUtnv5PyfDFinEO18xk6MS+7sl+sqlySlhHjx1mVBGSpWHsH9HICAuGtVqwLeKcTkPmEJ4hVsA/xxrHMBKQTNfOnLHfMCcB9JR5vAfH2JVmRWAnIvsv0+SLClJYi/S0BNmvxXL4a4TzOXa7PWNW0Op2ALAae1+Qxy7Y98X4TZSYgGfB/EWMdqi3/lmUcofBCWcdbSHgTpZpzDYg64YLUAXSJCylvXm/ZriKUcayCKwlP+KuuQVgEfm2JxzgZmPTMf17vmWOVdZO3mDDt6+aS+i/T3wjf4SL6gSNb+PfjgPcUPCbAtAh9VMGNVOfh2k2EfTeqLifsH/PDEo/xYZ6d1jeaUOZ9y5KO1SBs3thKKXlVlAmIOuG21AF0iSeoxx+9ofw6dQDLaFCf7+Qiwk37n0s8xunA+wlT5GKu2VpWDhxCeBtaV6dH6OMQYGyT//YIim9ieDVhvVU3qNI1BOozroOEm/YyE//PERKRS4GXl3icowhvhdUFTEDUCb1Q5aZT5qUOoE0LUwewnDqN45OESi93ldR/H/ANQrWlsnwUOK/E/jvhOuCPBfsYRXMbE64BHF7wWBAnaaoKryHtW0CYLlpW0pQRpmLtXFL/AJ8Czi6xf3WYCYgkVd8cQsWXB1MH0oZT6J4b4S9F6OMoVl1F6WCKl2e9jVCSVYLwBn1v6vkW/WuE6aLqIiYgklQP9xDehMxNHUgLzqfzZV/LdDHF1yGMJ2w4uSL9PLsup4hTCVPfpKVmEcpfP5Q6kBb8hDC9S13GBESS6uM2Qu39p1MH0oQrCE/yu+kmeAlwRoR+jmHF+/q8heK7Y88kJEvS8v5BfTYA/TnwDsLvTl3GBESS6uXnhD/KK9pEsAp+S/feOHyN4m+htiZsijmUIrumL3UGoYCBNJTfEUrMV21dzbLq9LBFbTABkaT6qfK0hDsIc83npw6kJPOAr0foZ6hEYwfCLvRFzCMkSdLKXE94Q1nF0u73EPb6qNN0U7XIBESql/7UAagyzuG5GwmmNoOwWP6x1IGUbDrF3zC8Edh2uf/uowX7hJAceeOmZnyX1vam6YQ5hAcYs1MHonKZgEj1MQLYNHUQqpRPEm6Gq+BRwiL5qmwWV6ZYayyWXWz+QkKp1CJirVFR7/gy8IXUQTxjHrAnYSd1dTkTEKk+9gTWitRXNy0M7nVHk35zrgXA/sCdiePopBhVpt4FTHjmPx9D8b/J3wfuK9iHes8JhL2AUlq66WrRvXZUEyYgUj2MJWzEFMvjEftSWg3CTsfXJDr+YsKNw68SHT+V24BrC/axGmHDwfWBgwpHBNMi9KHekwMfBH6Y6PgNwvc/1TVMCQxLHYBUcWsCayc8/ibATsBE4PmR+mxQrzrwWrWlTw9vAF7ZwePmhJ29r+zgMavkdMK0syI+RLjOjCjYzw3ALQX7UO8aJCQBVxOKIXTSZMLbO/UQExB1Qsob+KIuSB1ACR6mO8uj9rp5hAXgvySsJ+iEY4BvdehYVXQt8BdgmwJ9rE3YHb2oGLu0q7c9Rdgj5OfAyzp0zCm4bqknOQVLnbB76gD0H25LHYBKM4eQhHSigswX8KY3J7wFSe3vwE9TB6Gu8AShGMK/OnCscwiFNNSDTEBUtmHAeyL1tThSP73uZ6kDUKn+Bfy65GMswSkTS30XeCBxDKdRzf0cVE+zCG9BypTTnTMM1CQTEJVpLPBt4MWR+uv2vQU6bl4/ogAAEhpJREFUxQSku50KvLXkYwwDrgK2LPk4dbAYOCvh8R8Gzk94fHWfTwDvK/kYGXAZz90LRz3CNSDdaSxp63qvRpiDvguwRsR+Z0bsq1fdCfw5dRAqzbEMvcN2GcYRFp+/HniwQ8esqq8SSpmOSXDsM4GnExxX3elQOjctagxh6uDr6cyUL1WICUh3GgUclzqIErg5UXGfx6ka3eogOv/gYTNC6cwd6e3dt58k7KNwdIePu4CQ/Egx7A+c3eFjDhCKOWyP1Rl7ilOwVCe/SR1Azf0LuCh1ECrFPsC5hGkNnbY18COKl5Gtu6l0fp3aucAjHT6mutPOwMWkeTC9OWE6VqyNdlUDJiCqk+tTB1BjOWHDMxfyd59Xk+7GYamdKxBDajPo7ML8Bm48qDiq8BBhO+BSYPWEMaiDTEBUF78D7k0dRI2dQe9uFtfNtiLMoV4zdSCkmb5RNacQkv1O+BHwjw4dS91r6TTKsakDAXYl7CvkvWkP8ENWXfxf6gBq7CbgY6mDUHQTCMnHOqkDWUYnF7BW0a2EHck7oQr7j6jelhaS2DB1IMs4gFBYQV3OBER1MJNQzlet+zWwN2GHW3WPdQlPLZ+XOpAhfAKYmDqIhDqRGPyK8vd6UXcbTXVLaR+OD826ngmI6uCjwMLUQdTQNcCewLzUgSiqNYCfEG9/nTJ8Cfif1EEkciVwe8nH8O2HihgO/AB4RepAVuKzwCGpg1B5TEBUdZcTdhpW85YQpsHsRSgPqu6xGuHG4XWpA1mFPuA8YI/UgSSQExKwstxDWKwrtaOPsHHl7qkDWYUMOIfyN1VVIiYgqrJ7gfemDqJGcsKT8e2AKbjfR7fJgK8REss6WPqU9ZWpA0ngAmB2SX2fDgyW1Le631Tg7amDaFI/IVnaIXUgis8ERFU1hzB96LHUgdTAI4TKIS8H3oQ7nXer04D3pQ6iRaMIU5JemDqQDlsInFVCv4/heji1bwpwVOogWjSSsEfIy1IHorh6uWa7qmsW4SnvXakDAW4mxBPLmoRF4TE8BLyNsBi16k9Eq/awo2rxrMpxlLvL9l2EzcDKGJdxhGpd21PeW4Eq+gphIW3MzdXOBuZH7K9OqvabrVo8q3IYcHKJ/f8D2IQwTTS2McAVwOsJG+qqC5iAqGpuAN5FdW5UTiX+fOvvEkoNFrUBYSHyTRH6KtvzUwewnI1TB9CCg4DPl9j/3YQpDm8l3DSXYTPgamAn4PGSjlE1jwPfJN4T54XAlyP1VUdVu4ZUsQLdiryJckvb3gvsCOxCWPtVRnI2AFxLeJDxUAn9Sz0v79E2l1C6s7/4EAJwSaS43hQpnmWNBe6LFN+/KbeM4tRIcVZpWtgmhPUxMc5rn5Jj3Zewe31Zv7sZhPFY6pMlHisHfk75uy1fGinWfSPEsinxPr+vRYgH4I5I8TQ7rW5KpOP9k+q8dViPeJ/rO0uOdWdCGfayftNz+M/vwhElHisnbEo8Ks7QKKWq/JjVu+YAnyZM/5hO9acSxTAXeD9xFomvCVxIOa+9Y9qWcpK5dpxAWNBdda8BLqK8N9VPEKYD3rfMf3cycEZJx4PwBuRieuft+7+AH0boJwemReinzjYjvA2sgmOpx3d4G+BHlJf0zyOs1fz7Mv/dWYSZA2V5FfBjYPUSjyH1pDKfHFShzQd+T/hjuiflXcSr/AZkqS9FijEnPGUsQ6w3IDnhbc0JwPiSYl2VFwHnriLGVltZb0C2Ah6NHOuybQFhKsNQ+oDvlXjsnLCQuqwksEpvQCDcMBWN5bJIsUB934DkhCf5n+I/39p10gsI0+Bi/hbKegPyAsJU5rJ+wwuBN67g2BnwjRKPnROmMvsQvcbqkMGrdQ8Ab0kdxHKeIlRweYhw8aiLRSX2fQLwBmDrCH2dSNjV9jcR+lrW4oh9rUnYXOozhEXP/47Y96psQpg2EVsZ348JhMpR65TQN4S3jO9kxWuHGoQnzWMpb6+A9wD3AyeV1H8MsT7b3wO/IMyRb1fMjQdj/qY7fbwRhO/MSYS1S53c52gCYd1dbGVcQ5YWftiwhL4hXCPeTVjXNZQcOBRYm/LuRQ4grLM6vKT+pZ4T48nALR2PunpivQH5r5Lj3Ip483P/Sfy5sSdEiq1bW+w9LtYD7iwx3gZwcJOxjAb+UGIsOTCphbFpVqw3IDE/2/0LxPH7iHEA3FgglmVbs29APhzpeN3adm1yHJs1GvhjyTFPbDKWkcAvS47lxBbGRtJKxPhBuktuvARkQgdiPSZSrDnxFqou9b6IsXVj26jtkX2uNYBflRzvMS3GNI4wv7useBqEtyExxUpAYn62fbSfWB4YMQ4Ia8ZijE+zCchbIh2vW9uLmhzHZgwHrik53k+1GNMYQhGSsuJpAP/bYkyShhDjB3lKx6OunhgJyDw6s1i5D7g+QrxL2/4RY3tNxLi6rc0tMK7LW40w7arMeNu9LmxGuXPJF7HiueTtiJGAxPxsl/rfNuL4F/GnSn+ijTiGas0mIC+OdLxubIuIV0CkH/h+yfGe02ZsA4RSvWXFtYSwJ5akAmL8GP+741FXT4wE5GcdjHc88RYdzyHe3N+RwNOR4uq2tqL5z63KCIuyy4z1fIol01sT5luXFd984LUF4ltWjAQk1me7rNVpPZGbXEIce7YYw4paswlIP+V+d+rcYq7ZO6PkWC+lWDK8Oc+uAS2jLSSsqZTUpqI/wiWUs9i2bmIkICd0OOYDI8S8tF1BvLc3N0SMq5va8UUGdRkxq6EN1S4nzlP0nSl/P4EY01FiJCDHRYhjKCe1EMNcytnvYC3iPFRoNgGBUDY19e+1ii3WBqOfLjnOnxOnlO92hJkFZcX5BPDyCHFKPanoD/CazodcSTESkDI3+FuRCwrEu3w7LFJMh0eMqZvaFkUG9RknlhzjbwnVx2J5E+EhR1nx3k/xXeqLJiANwrSzMqxDqP7WTBxfKCkGiHN9bCUBeVeE43Vji3GzfFjJMf6FUM0qlt0o9636Q8S5Nks9p+iP7x2dD7mSiv6Bvb7zIQOh9On9Tca4qjaf1m4SVmQdyn1qVccW4/vxHuLtyD5Uu51ySvl+sMSYc+A2it3wFE1Ari1w7Gac3UQMiyi3AEaMaVitXFvWILzhSv27rVL7QwvjtyJvptwHAv8kbjGGpQ4klAMvK+5/UF4JYqlrFfnR3UWYb6viCUjKuaS7EO/i/DviLHI8LVI83dKK7o+xH2F/hLLim0G5m7VNKTH2HPg17b+5KZqA7NLmcZu1Oau+afxOyTFkFC+x3OrDjVamn/VCK7poehfKfZPwMHEeYK1I2eWZbyU80JPUpCI/uP0SxFtVRRKQKxPEu7xTiXch/nSEeNYm/EFK/Ue7Cu2qgmP5WsLbqbLie4RQeahs00s8h5yw+3c7a1eKJCA/buN47VjZbtrzCLtYl21Hir2Ba/XmdA3KrYRUp3YTxdbobUtYI1RWfE8Sf4+joXyhxHPICW+qV+/AeUhdod0f2sUpgq2wdhOQxyj3yXGzVifeZlJLgNdHiOkdkeKpc3sc2LTAGL6U8B0rK775xPmsm9EHfK/Ec8kJbwJavVFrNwF5lOLrT5q1BvCTIWJ4kjA9qlO+MkQMzbZ2no7vTbnTDuvQ5gMvaWPslnoB8GCJ8S0E9igQXysy4P9KPJcc+BHODJGa0s4P7O+EzX70rHYSkEGq9Rbp+cQrzRtrl/SVPbnt9jZI2FStXRsTb33PUG0RsFeB+NoxnFCytsxx/2yLMbWTgCwB9mnxOEVlhOvN14AfEKYolTHffmVGEHZab+dzaXd6zufbPF63tCIbb24E3FNibIPA/xSIrx39xNs4eEXtKx07G6nGWv1hzaa8ii111s4F7fAkka7cTsSbrvPNCPEMI95O03VrEwuMW9k7ig8CBxWIr4jRtH8T22w7qoV42vl+fqiN8+4WGwB30/qYtZuA9BG32l+d2ifaHDMIDxlvLTG2BvEqJ7ZqJPCLJmIs0k7q2NlINdXKD+pflLtIrM5aSUCWUO0bkF0JUzNiXIRjbFI5HLgoUjx1aA3gIwXH7HmUl4AsAd5bML6i1qH4ouaVjf+xLcTSSgJS9d9+p2wE/InWPpcif3v6CW9+Uv+2O9mKllXegPISkAZwRMH4ihoF/JLyxr/VN6lSz2n2x3Q9lplbmWYTkIeBNyaKsRUvIc4N7BxgIEI8fcAnKbeUYhXao8SbljcOuK6E+Do1X3tV1iL+VIp/E/aQaEWzCchDFK9m1k3G0NrnV/ThV0ZILMusBleF9gTxyuOPJRRniBnfk4RyvlUwgrDuK+b5PQ0c2smTkOqqmYvZZFxUtSrN/CG9kM7PuS5iTUI53KJ/sK8i3i7p2xM2qkr9R76M9n3i78XQT7jpijGt7lJgfOT4isqAQwiL9Yue3y9or5rXqhKQBnA+PsBZkfcSkrNVfT6x3r6/ilAuPPXvvYx2OfGnSGfAkYR7gaLxXUOxohpleSdx9o25BXhZh2OXamtFP6RHgM8B66cLrVZWlIAsfub/t1260Ap7EfAN2qsBfz9hOtHwiPEMIzyljlW1K2VbTCjF+tqI4zOU8cAZNL8r9tLWILz9LHuviqLWISw2bqfi1x+At9J+kryiBGQRYbH3q9rst5eMBo4DHmDFn1PM6b99hH0xfrOS49WlDRJKue8ccXyGsgGhXHs7ichNdL5gRatGE/Ybaqf8+22EJKav00FLdbb0B7SAcEN3BrAvcTaT6yVLE5AlhF1Rv0t4DTsuZVCRrUOoqHIRYRHpUNOhniIsED4D2I329lVoxUuBEwmVkZp5ipq6LSFUCLuIsMN3pxP8tYB3Exbl/ouhS5Q+Spi6dTywRYfjK2oEYfrJuYTv6FAb8D0J3EzYr2bbCMdcmoAs/e1fCPwvsF6EvntNHyHZPYWwOeSyN7tlrT98ISH5+Skwi3J+97ETjnsJye2HiTPFtRUjgQOAbxMqZA31d+Bx4Ebg4xQrAZzCcMIDia8Df2PoGQD/JiSvn6feDxd7SqxpGIrnxYSLxcOEmxG153mEC9PDhLrmvWAksC5hnvBiws3CHMIfpFTWItzUr50whqEs5tnfWZW+HyMJ0wJHE6ZpPUZIQLrF6oSpT6MJbySeIOxpENMmhGtn1T7bbjGO8PDjPsJb2LKtybPXkCrdsyzh2WtIJ8ahWSMISdAowgOoxwl/B7rFcJ69hiwhPMCYlTQiSZIkSZIkSZIkSZIkSZIkSZIkSZIkSZIkSZIkSZIkSZIkSZIkSZIkSZIkSZIkSZIkSZIkSZIkSZIkSZIkSZIkSZIkSZIkSZIkSZIkSZIkSZIkSZIkSZIkSZIkSZIkSZIkSZIkSZIkSZIkSZIkSZIkSZIkSZIkSZIkSZIkSZIkSZIkSZIkSZIkSZIkSZIkSZIkSZIkSZIkSZIkSZIkSZIkSZIkSZIkSZIkSZIkSZIkSZIkSZIkSZIkSZIkSZIkSZIkSZIkSZIkSZIkSZIkSZIkSZIkSZIkSZIkSZIkSZIkSZIkSZIkSZIkSZIkSZIkSZIkSZIkSZIkSZIkSZIkSZIkSZIkSZIkSZIkSZIkSZIkSZIkSZIkSZIkSZIkSZIkSZIkSZIkSZIkSZIkSZIkSZIkSZIkSZIkSZIkSZIkSZIkSZIkSZIkSZIkSZIkSZIkSZIkSZIkSZIkSZIkSZIkSZIkSZIkSZIkSZIkSZIkSZIkSZIkSZIkSZIkSZIkSZIkSZIkSZIkSZIkSZIkSZIkSZIkSZIkSZIkSZIkSZIkSZIkSZIkSZIkSZIkSZIkSZIkSZIkSZIkSZIkSZIkSZIkSZIkSZIkSZIkSZIkSZIkSZIkSZIkSZIkSZIkSZIkSZIkSZIkSZIkSZIkSZIkSZIkSZIkSZIkSZIkSZIkSZIkSZIkSZIkSZIkSZIkSZIkSZIkSZIkSZIkSZIkSZIkSZIkSZIkSZIkSZIkSZIkSZIkSZIkSZIkSZIkSZIkSZIkSZIkSZIkSZIkSZIkSZIkSZIkSZIkSZIkSZIkSZIkSZIkSZIkSZIkSZIkSZIkSZIkSZIkSZIkSZIkSZIkSZIkSZIkSZIkSZIkSZIkSZIkSZIkSZIkSZIkSZIkSZIkSZIkSZIkSZIkSZIkSZIkSZIkSZIkSZIkSZIkSZIkSZIkSZIkSZIkSZIkSZIkSZIkSZIkSZIkSZIkSZIkSZIkSZIkSZIkSZIkVcD/A6LXPzs48hbjAAAAAElFTkSuQmCC;" parent="4qRpMjFqUVP8ZO3B1cwk-1" vertex="1">
          <mxGeometry x="1286.8622448979593" y="23.277072442120986" width="83.53417863582537" height="83.53417863582537" as="geometry" />
        </mxCell>
        <mxCell id="VIP0-5HIC0JtuQcf17Q0-15" value="" style="group" parent="4qRpMjFqUVP8ZO3B1cwk-1" connectable="0" vertex="1">
          <mxGeometry x="236.28826530612244" y="21.822255414488424" width="425" height="142.86303211351753" as="geometry" />
        </mxCell>
        <mxCell id="VIP0-5HIC0JtuQcf17Q0-16" value="" style="rounded=1;whiteSpace=wrap;html=1;fillColor=#dae8fc;strokeColor=#6c8ebf;" parent="VIP0-5HIC0JtuQcf17Q0-15" vertex="1">
          <mxGeometry x="-14" width="439" height="142.86" as="geometry" />
        </mxCell>
        <mxCell id="VIP0-5HIC0JtuQcf17Q0-17" value="&lt;div style=&quot;font-size: 9px;&quot;&gt;&lt;font style=&quot;font-size: 9px;&quot;&gt;WEB&lt;/font&gt;&lt;/div&gt;&lt;div style=&quot;font-size: 9px;&quot;&gt;&lt;font style=&quot;font-size: 9px;&quot;&gt;192.168.110.3/24&lt;/font&gt;&lt;br&gt;&lt;/div&gt;" style="sketch=0;points=[[0.015,0.015,0],[0.985,0.015,0],[0.985,0.985,0],[0.015,0.985,0],[0.25,0,0],[0.5,0,0],[0.75,0,0],[1,0.25,0],[1,0.5,0],[1,0.75,0],[0.75,1,0],[0.5,1,0],[0.25,1,0],[0,0.75,0],[0,0.5,0],[0,0.25,0]];verticalLabelPosition=bottom;html=1;verticalAlign=top;aspect=fixed;align=center;pointerEvents=1;shape=mxgraph.cisco19.server;fillColor=#005073;strokeColor=none;" parent="VIP0-5HIC0JtuQcf17Q0-15" vertex="1">
          <mxGeometry x="269.0051020408163" y="37.61429424943989" width="31.14125862872846" height="56.6333414480172" as="geometry" />
        </mxCell>
        <mxCell id="VIP0-5HIC0JtuQcf17Q0-18" value="&lt;div style=&quot;font-size: 9px;&quot;&gt;&lt;font style=&quot;font-size: 9px;&quot;&gt;ZAPPIX&lt;/font&gt;&lt;/div&gt;&lt;div style=&quot;font-size: 9px;&quot;&gt;&lt;font style=&quot;font-size: 9px;&quot;&gt;192.168.110.4/24&lt;/font&gt;&lt;br&gt;&lt;/div&gt;" style="sketch=0;points=[[0.015,0.015,0],[0.985,0.015,0],[0.985,0.985,0],[0.015,0.985,0],[0.25,0,0],[0.5,0,0],[0.75,0,0],[1,0.25,0],[1,0.5,0],[1,0.75,0],[0.75,1,0],[0.5,1,0],[0.25,1,0],[0,0.75,0],[0,0.5,0],[0,0.25,0]];verticalLabelPosition=bottom;html=1;verticalAlign=top;aspect=fixed;align=center;pointerEvents=1;shape=mxgraph.cisco19.server;fillColor=#005073;strokeColor=none;" parent="VIP0-5HIC0JtuQcf17Q0-15" vertex="1">
          <mxGeometry x="348.97959183673476" y="37.614294249439865" width="31.148337796409457" height="56.6333414480172" as="geometry" />
        </mxCell>
        <mxCell id="VIP0-5HIC0JtuQcf17Q0-19" value="&lt;div style=&quot;font-size: 9px;&quot;&gt;&lt;font style=&quot;font-size: 9px;&quot;&gt;NAS&lt;/font&gt;&lt;/div&gt;&lt;div style=&quot;font-size: 9px;&quot;&gt;&lt;font style=&quot;font-size: 9px;&quot;&gt;192.168.110.8/24&lt;/font&gt;&lt;br&gt;&lt;/div&gt;" style="sketch=0;points=[[0.015,0.015,0],[0.985,0.015,0],[0.985,0.985,0],[0.015,0.985,0],[0.25,0,0],[0.5,0,0],[0.75,0,0],[1,0.25,0],[1,0.5,0],[1,0.75,0],[0.75,1,0],[0.5,1,0],[0.25,1,0],[0,0.75,0],[0,0.5,0],[0,0.25,0]];verticalLabelPosition=bottom;html=1;verticalAlign=top;aspect=fixed;align=center;pointerEvents=1;shape=mxgraph.cisco19.server;fillColor=#005073;strokeColor=none;" parent="VIP0-5HIC0JtuQcf17Q0-15" vertex="1">
          <mxGeometry x="21.811224489795922" y="37.614294249439865" width="31.148337796409457" height="56.6333414480172" as="geometry" />
        </mxCell>
        <mxCell id="VIP0-5HIC0JtuQcf17Q0-20" value="&lt;div style=&quot;font-size: 9px;&quot;&gt;&lt;font style=&quot;font-size: 9px;&quot;&gt;GLPI&lt;/font&gt;&lt;/div&gt;&lt;div style=&quot;font-size: 9px;&quot;&gt;&lt;font style=&quot;font-size: 9px;&quot;&gt;192.168.110.7/24&lt;/font&gt;&lt;br&gt;&lt;/div&gt;" style="sketch=0;points=[[0.015,0.015,0],[0.985,0.015,0],[0.985,0.985,0],[0.015,0.985,0],[0.25,0,0],[0.5,0,0],[0.75,0,0],[1,0.25,0],[1,0.5,0],[1,0.75,0],[0.75,1,0],[0.5,1,0],[0.25,1,0],[0,0.75,0],[0,0.5,0],[0,0.25,0]];verticalLabelPosition=bottom;html=1;verticalAlign=top;aspect=fixed;align=center;pointerEvents=1;shape=mxgraph.cisco19.server;fillColor=#005073;strokeColor=none;" parent="VIP0-5HIC0JtuQcf17Q0-15" vertex="1">
          <mxGeometry x="184.66109693877573" y="37.61429424943989" width="31.14125862872846" height="56.6333414480172" as="geometry" />
        </mxCell>
        <mxCell id="VIP0-5HIC0JtuQcf17Q0-21" value="&lt;div style=&quot;font-size: 9px;&quot;&gt;&lt;font style=&quot;font-size: 9px;&quot;&gt;BDD&lt;/font&gt;&lt;/div&gt;&lt;div style=&quot;font-size: 9px;&quot;&gt;&lt;font style=&quot;font-size: 9px;&quot;&gt;192.168.110.5/24&lt;/font&gt;&lt;br&gt;&lt;/div&gt;" style="sketch=0;points=[[0.015,0.015,0],[0.985,0.015,0],[0.985,0.985,0],[0.015,0.985,0],[0.25,0,0],[0.5,0,0],[0.75,0,0],[1,0.25,0],[1,0.5,0],[1,0.75,0],[0.75,1,0],[0.5,1,0],[0.25,1,0],[0,0.75,0],[0,0.5,0],[0,0.25,0]];verticalLabelPosition=bottom;html=1;verticalAlign=top;aspect=fixed;align=center;pointerEvents=1;shape=mxgraph.cisco19.server;fillColor=#005073;strokeColor=none;" parent="VIP0-5HIC0JtuQcf17Q0-15" vertex="1">
          <mxGeometry x="101.7857142857143" y="37.61429424943989" width="31.14125862872846" height="56.6333414480172" as="geometry" />
        </mxCell>
        <mxCell id="VIP0-5HIC0JtuQcf17Q0-22" value="&lt;h1 style=&quot;margin-top: 0px;&quot;&gt;VLAN 10&lt;/h1&gt;" style="text;html=1;whiteSpace=wrap;overflow=hidden;rounded=0;" parent="VIP0-5HIC0JtuQcf17Q0-15" vertex="1">
          <mxGeometry x="14.54" width="74.46" height="29.1" as="geometry" />
        </mxCell>
        <mxCell id="VIP0-5HIC0JtuQcf17Q0-23" value="" style="group" parent="4qRpMjFqUVP8ZO3B1cwk-1" connectable="0" vertex="1">
          <mxGeometry x="708.86" y="144" width="136" height="129.8" as="geometry" />
        </mxCell>
        <mxCell id="VIP0-5HIC0JtuQcf17Q0-24" value="" style="rounded=1;whiteSpace=wrap;html=1;fillColor=#d5e8d4;strokeColor=#82b366;" parent="VIP0-5HIC0JtuQcf17Q0-23" vertex="1">
          <mxGeometry x="-6" width="142" height="129.8" as="geometry" />
        </mxCell>
        <mxCell id="VIP0-5HIC0JtuQcf17Q0-25" value="&lt;div style=&quot;font-size: 9px;&quot;&gt;&lt;font style=&quot;font-size: 9px;&quot;&gt;Network address 192.168.120.0/24&lt;/font&gt;&lt;/div&gt;&lt;div style=&quot;font-size: 9px;&quot;&gt;&lt;font style=&quot;font-size: 9px;&quot;&gt;DHCP: 192.168.120.1→253&lt;/font&gt;&lt;/div&gt;&lt;div style=&quot;font-size: 9px;&quot;&gt;&lt;font style=&quot;font-size: 9px;&quot;&gt;Gateway : 192.168.20.254&lt;/font&gt;&lt;br&gt;&lt;/div&gt;" style="shape=mxgraph.cisco.computers_and_peripherals.terminal;html=1;pointerEvents=1;dashed=0;fillColor=#036897;strokeColor=#ffffff;strokeWidth=2;verticalLabelPosition=bottom;verticalAlign=top;align=center;outlineConnect=0;" parent="VIP0-5HIC0JtuQcf17Q0-23" vertex="1">
          <mxGeometry x="43.25980555555555" y="28.08173076923078" width="44.35038888888889" height="42.12259615384617" as="geometry" />
        </mxCell>
        <mxCell id="VIP0-5HIC0JtuQcf17Q0-26" value="&lt;h1 style=&quot;margin-top: 0px; font-size: 17px;&quot;&gt;&lt;font style=&quot;font-size: 17px;&quot;&gt;VLAN20 &lt;br&gt;&lt;/font&gt;&lt;/h1&gt;&lt;p style=&quot;font-size: 17px;&quot;&gt;&lt;br&gt;&lt;/p&gt;" style="text;html=1;whiteSpace=wrap;overflow=hidden;rounded=0;" parent="VIP0-5HIC0JtuQcf17Q0-23" vertex="1">
          <mxGeometry x="34" width="81" height="39" as="geometry" />
        </mxCell>
        <mxCell id="VIP0-5HIC0JtuQcf17Q0-27" style="edgeStyle=orthogonalEdgeStyle;rounded=0;orthogonalLoop=1;jettySize=auto;html=1;exitX=0.5;exitY=1;exitDx=0;exitDy=0;exitPerimeter=0;" parent="VIP0-5HIC0JtuQcf17Q0-23" source="VIP0-5HIC0JtuQcf17Q0-25" target="VIP0-5HIC0JtuQcf17Q0-25" edge="1">
          <mxGeometry relative="1" as="geometry" />
        </mxCell>
        <mxCell id="hWWQz9CTG23grLyMKggC-8" value="Chirurgie" style="text;html=1;align=center;verticalAlign=middle;whiteSpace=wrap;rounded=0;" parent="VIP0-5HIC0JtuQcf17Q0-23" vertex="1">
          <mxGeometry x="43.98686111111111" y="106.3985576923077" width="43.62333333333333" height="23.401442307692317" as="geometry" />
        </mxCell>
        <mxCell id="VIP0-5HIC0JtuQcf17Q0-28" value="" style="group" parent="4qRpMjFqUVP8ZO3B1cwk-1" connectable="0" vertex="1">
          <mxGeometry x="708.8647959183673" y="282.23450336071693" width="130.87" height="142.57206870799104" as="geometry" />
        </mxCell>
        <mxCell id="VIP0-5HIC0JtuQcf17Q0-29" value="" style="rounded=1;whiteSpace=wrap;html=1;fillColor=#fff2cc;strokeColor=#d6b656;" parent="VIP0-5HIC0JtuQcf17Q0-28" vertex="1">
          <mxGeometry width="130.87" height="129" as="geometry" />
        </mxCell>
        <mxCell id="VIP0-5HIC0JtuQcf17Q0-30" value="&lt;div style=&quot;font-size: 9px;&quot;&gt;&lt;font style=&quot;font-size: 9px;&quot;&gt;Network address 192.168.130/24&lt;/font&gt;&lt;/div&gt;&lt;div style=&quot;font-size: 9px;&quot;&gt;&lt;font style=&quot;font-size: 9px;&quot;&gt;DHCP : 192.168.130.1 → 253&lt;/font&gt;&lt;/div&gt;&lt;div style=&quot;font-size: 9px;&quot;&gt;&lt;font style=&quot;font-size: 9px;&quot;&gt;Gateway : 192.168.130.254&lt;/font&gt;&lt;br&gt;&lt;/div&gt;" style="shape=mxgraph.cisco.computers_and_peripherals.terminal;html=1;pointerEvents=1;dashed=0;fillColor=#036897;strokeColor=#ffffff;strokeWidth=2;verticalLabelPosition=bottom;verticalAlign=top;align=center;outlineConnect=0;" parent="VIP0-5HIC0JtuQcf17Q0-28" vertex="1">
          <mxGeometry x="43.25892857142857" y="30.551157580283792" width="44.349489795918366" height="39.28005974607917" as="geometry" />
        </mxCell>
        <mxCell id="VIP0-5HIC0JtuQcf17Q0-31" value="&lt;h1 style=&quot;margin-top: 0px; font-size: 17px;&quot;&gt;&lt;font style=&quot;font-size: 17px;&quot;&gt;VLAN30&lt;br&gt;&lt;/font&gt;&lt;/h1&gt;&lt;p style=&quot;font-size: 17px;&quot;&gt;&lt;br&gt;&lt;/p&gt;" style="text;html=1;whiteSpace=wrap;overflow=hidden;rounded=0;" parent="VIP0-5HIC0JtuQcf17Q0-28" vertex="1">
          <mxGeometry x="25.446428571428573" width="79.97448979591837" height="36.370425690814045" as="geometry" />
        </mxCell>
        <mxCell id="VIP0-5HIC0JtuQcf17Q0-32" style="edgeStyle=orthogonalEdgeStyle;rounded=0;orthogonalLoop=1;jettySize=auto;html=1;exitX=0.5;exitY=1;exitDx=0;exitDy=0;exitPerimeter=0;" parent="VIP0-5HIC0JtuQcf17Q0-28" source="VIP0-5HIC0JtuQcf17Q0-30" target="VIP0-5HIC0JtuQcf17Q0-30" edge="1">
          <mxGeometry relative="1" as="geometry" />
        </mxCell>
        <mxCell id="hWWQz9CTG23grLyMKggC-9" value="Neurologie" style="text;html=1;align=center;verticalAlign=middle;whiteSpace=wrap;rounded=0;" parent="VIP0-5HIC0JtuQcf17Q0-28" vertex="1">
          <mxGeometry x="43.99" y="111" width="43.62" height="24" as="geometry" />
        </mxCell>
        <mxCell id="VIP0-5HIC0JtuQcf17Q0-33" value="" style="group" parent="4qRpMjFqUVP8ZO3B1cwk-1" connectable="0" vertex="1">
          <mxGeometry x="703" y="430.26" width="140.37" height="119.74" as="geometry" />
        </mxCell>
        <mxCell id="VIP0-5HIC0JtuQcf17Q0-34" value="" style="rounded=1;whiteSpace=wrap;html=1;fillColor=#e1d5e7;strokeColor=#9673a6;" parent="VIP0-5HIC0JtuQcf17Q0-33" vertex="1">
          <mxGeometry y="4.5327444794952685" width="140.37" height="113.31861198738169" as="geometry" />
        </mxCell>
        <mxCell id="VIP0-5HIC0JtuQcf17Q0-35" value="&lt;div style=&quot;font-size: 9px;&quot;&gt;&lt;font style=&quot;font-size: 9px;&quot;&gt;Network address 192.168.200.0/24&lt;/font&gt;&lt;/div&gt;&lt;div style=&quot;font-size: 9px;&quot;&gt;&lt;font style=&quot;font-size: 9px;&quot;&gt;DHCP: 192.168.200.1 → 254&lt;/font&gt;&lt;/div&gt;&lt;div style=&quot;font-size: 9px;&quot;&gt;&lt;font style=&quot;font-size: 9px;&quot;&gt;Gateway : 192.168.200.254&lt;/font&gt;&lt;br&gt;&lt;/div&gt;" style="shape=mxgraph.cisco.computers_and_peripherals.terminal;html=1;pointerEvents=1;dashed=0;fillColor=#036897;strokeColor=#ffffff;strokeWidth=2;verticalLabelPosition=bottom;verticalAlign=top;align=center;outlineConnect=0;" parent="VIP0-5HIC0JtuQcf17Q0-33" vertex="1">
          <mxGeometry x="46.400083333333335" y="25.685552050473188" width="47.569833333333335" height="40.79470031545742" as="geometry" />
        </mxCell>
        <mxCell id="VIP0-5HIC0JtuQcf17Q0-36" value="&lt;h1 style=&quot;margin-top: 0px; font-size: 17px;&quot;&gt;&lt;font style=&quot;font-size: 17px;&quot;&gt;VLAN100&lt;br&gt;&lt;/font&gt;&lt;/h1&gt;&lt;p style=&quot;font-size: 17px;&quot;&gt;&lt;br&gt;&lt;/p&gt;" style="text;html=1;whiteSpace=wrap;overflow=hidden;rounded=0;" parent="VIP0-5HIC0JtuQcf17Q0-33" vertex="1">
          <mxGeometry x="32" width="84.98" height="30.22" as="geometry" />
        </mxCell>
        <mxCell id="hWWQz9CTG23grLyMKggC-11" value="Admin" style="text;html=1;align=center;verticalAlign=middle;whiteSpace=wrap;rounded=0;" parent="VIP0-5HIC0JtuQcf17Q0-33" vertex="1">
          <mxGeometry x="47.17991666666668" y="99.34264984227129" width="46.790000000000006" height="22.66372239747634" as="geometry" />
        </mxCell>
        <mxCell id="VIP0-5HIC0JtuQcf17Q0-37" value="" style="group" parent="4qRpMjFqUVP8ZO3B1cwk-1" connectable="0" vertex="1">
          <mxGeometry x="112.69132653061224" y="163.66691560866317" width="174.48979591836735" height="145.40168782673635" as="geometry" />
        </mxCell>
        <mxCell id="VIP0-5HIC0JtuQcf17Q0-38" value="" style="rounded=1;whiteSpace=wrap;html=1;fillColor=#b0e3e6;strokeColor=#0e8088;" parent="VIP0-5HIC0JtuQcf17Q0-37" vertex="1">
          <mxGeometry y="3.64" width="101.79" height="117.36" as="geometry" />
        </mxCell>
        <mxCell id="VIP0-5HIC0JtuQcf17Q0-39" value="&lt;div&gt;Backup&lt;/div&gt;&lt;div&gt;192.168.150.1/24&lt;/div&gt;" style="sketch=0;points=[[0.015,0.015,0],[0.985,0.015,0],[0.985,0.985,0],[0.015,0.985,0],[0.25,0,0],[0.5,0,0],[0.75,0,0],[1,0.25,0],[1,0.5,0],[1,0.75,0],[0.75,1,0],[0.5,1,0],[0.25,1,0],[0,0.75,0],[0,0.5,0],[0,0.25,0]];verticalLabelPosition=bottom;html=1;verticalAlign=top;aspect=fixed;align=center;pointerEvents=1;shape=mxgraph.cisco19.server;fillColor=#005073;strokeColor=none;" parent="VIP0-5HIC0JtuQcf17Q0-37" vertex="1">
          <mxGeometry x="34.89795918367347" y="25.459297983569826" width="31.141258628728455" height="56.6333414480172" as="geometry" />
        </mxCell>
        <mxCell id="VIP0-5HIC0JtuQcf17Q0-40" value="&lt;span style=&quot;color: rgb(0, 0, 0); font-family: Helvetica; font-style: normal; font-variant-ligatures: normal; font-variant-caps: normal; font-weight: 400; letter-spacing: normal; text-align: center; text-indent: 0px; text-transform: none; word-spacing: 0px; -webkit-text-stroke-width: 0px; white-space: normal; text-decoration-thickness: initial; text-decoration-style: initial; text-decoration-color: initial; float: none; display: inline !important;&quot;&gt;&lt;font style=&quot;font-size: 17px;&quot;&gt;VLAN 50 &lt;/font&gt;&lt;br&gt;&lt;/span&gt;" style="text;whiteSpace=wrap;html=1;" parent="VIP0-5HIC0JtuQcf17Q0-37" vertex="1">
          <mxGeometry x="14.540816326530614" width="72.70408163265306" height="36.37042569081404" as="geometry" />
        </mxCell>
        <mxCell id="VIP0-5HIC0JtuQcf17Q0-41" value="Internet" style="verticalLabelPosition=bottom;sketch=0;html=1;fillColor=#282828;strokeColor=none;verticalAlign=top;pointerEvents=1;align=center;shape=mxgraph.cisco_safe.business_icons.icon14;" parent="4qRpMjFqUVP8ZO3B1cwk-1" vertex="1">
          <mxGeometry x="1064.9330357142858" y="883.8013442867812" width="58.89030612244898" height="58.92008961911874" as="geometry" />
        </mxCell>
        <mxCell id="VIP0-5HIC0JtuQcf17Q0-42" value="" style="group" parent="4qRpMjFqUVP8ZO3B1cwk-1" connectable="0" vertex="1">
          <mxGeometry x="105.06" y="426.99" width="124.94" height="132.01" as="geometry" />
        </mxCell>
        <mxCell id="VIP0-5HIC0JtuQcf17Q0-43" value="" style="rounded=1;whiteSpace=wrap;html=1;fillColor=#b1ddf0;strokeColor=#10739e;" parent="VIP0-5HIC0JtuQcf17Q0-42" vertex="1">
          <mxGeometry y="6.6420125786163515" width="124.94000000000001" height="132.01" as="geometry" />
        </mxCell>
        <mxCell id="VIP0-5HIC0JtuQcf17Q0-44" value="&lt;div style=&quot;font-size: 9px;&quot;&gt;&lt;font style=&quot;font-size: 9px;&quot;&gt;192.168.111.0/24&lt;/font&gt;&lt;/div&gt;&lt;div style=&quot;font-size: 9px;&quot;&gt;&lt;font style=&quot;font-size: 9px;&quot;&gt;DHCP : 192.168.111.1 → 253&lt;/font&gt;&lt;/div&gt;&lt;div style=&quot;font-size: 9px;&quot;&gt;&lt;font style=&quot;font-size: 9px;&quot;&gt;Gateway : 192.168.111.254&lt;/font&gt;&lt;br&gt;&lt;/div&gt;" style="shape=mxgraph.cisco.computers_and_peripherals.terminal;html=1;pointerEvents=1;dashed=0;fillColor=#036897;strokeColor=#ffffff;strokeWidth=2;verticalLabelPosition=bottom;verticalAlign=top;align=center;outlineConnect=0;" parent="VIP0-5HIC0JtuQcf17Q0-42" vertex="1">
          <mxGeometry x="38.80124223602484" y="33.62518867924528" width="47.33751552795031" height="44.83358490566037" as="geometry" />
        </mxCell>
        <mxCell id="VIP0-5HIC0JtuQcf17Q0-45" value="&lt;span style=&quot;color: rgb(0, 0, 0); font-family: Helvetica; font-style: normal; font-variant-ligatures: normal; font-variant-caps: normal; font-weight: 400; letter-spacing: normal; text-align: center; text-indent: 0px; text-transform: none; word-spacing: 0px; -webkit-text-stroke-width: 0px; white-space: normal; text-decoration-thickness: initial; text-decoration-style: initial; text-decoration-color: initial; float: none; display: inline !important;&quot;&gt;&lt;font style=&quot;font-size: 17px;&quot;&gt;VLAN11&lt;/font&gt;&lt;/span&gt;" style="text;whiteSpace=wrap;html=1;" parent="VIP0-5HIC0JtuQcf17Q0-42" vertex="1">
          <mxGeometry x="35" y="4.15" width="65" height="29.85" as="geometry" />
        </mxCell>
        <mxCell id="VIP0-5HIC0JtuQcf17Q0-46" value="" style="group" parent="4qRpMjFqUVP8ZO3B1cwk-1" connectable="0" vertex="1">
          <mxGeometry x="102.69" y="293.87" width="121.78" height="128.13" as="geometry" />
        </mxCell>
        <mxCell id="VIP0-5HIC0JtuQcf17Q0-47" value="" style="rounded=1;whiteSpace=wrap;html=1;fillColor=#d0cee2;strokeColor=#56517e;" parent="VIP0-5HIC0JtuQcf17Q0-46" vertex="1">
          <mxGeometry width="121.77999999999999" height="123.11286144578312" as="geometry" />
        </mxCell>
        <mxCell id="VIP0-5HIC0JtuQcf17Q0-48" value="&lt;div style=&quot;font-size: 9px;&quot;&gt;&lt;font style=&quot;font-size: 9px;&quot;&gt;192.168.250.0/24&lt;/font&gt;&lt;/div&gt;&lt;div style=&quot;font-size: 9px;&quot;&gt;&lt;font style=&quot;font-size: 9px;&quot;&gt;DHCP : 192.168.250.1 → 253&lt;/font&gt;&lt;/div&gt;&lt;div style=&quot;font-size: 9px;&quot;&gt;&lt;font style=&quot;font-size: 9px;&quot;&gt;Gateway : 192.168.250.254&lt;/font&gt;&lt;br&gt;&lt;/div&gt;" style="shape=mxgraph.cisco.computers_and_peripherals.terminal;html=1;pointerEvents=1;dashed=0;fillColor=#036897;strokeColor=#ffffff;strokeWidth=2;verticalLabelPosition=bottom;verticalAlign=top;align=center;outlineConnect=0;" parent="VIP0-5HIC0JtuQcf17Q0-46" vertex="1">
          <mxGeometry x="38.72" y="28.17" width="44.35" height="37.83" as="geometry" />
        </mxCell>
        <mxCell id="VIP0-5HIC0JtuQcf17Q0-49" value="&lt;span style=&quot;color: rgb(0, 0, 0); font-family: Helvetica; font-style: normal; font-variant-ligatures: normal; font-variant-caps: normal; font-weight: 400; letter-spacing: normal; text-align: center; text-indent: 0px; text-transform: none; word-spacing: 0px; -webkit-text-stroke-width: 0px; white-space: normal; text-decoration-thickness: initial; text-decoration-style: initial; text-decoration-color: initial; float: none; display: inline !important;&quot;&gt;&lt;font style=&quot;font-size: 17px;&quot;&gt;VLAN500 &lt;/font&gt;&lt;br&gt;&lt;/span&gt;" style="text;whiteSpace=wrap;html=1;" parent="VIP0-5HIC0JtuQcf17Q0-46" vertex="1">
          <mxGeometry x="21.629582089552237" width="78.52083582089553" height="38.5933734939759" as="geometry" />
        </mxCell>
        <mxCell id="hWWQz9CTG23grLyMKggC-13" value="Patients" style="text;html=1;align=center;verticalAlign=middle;whiteSpace=wrap;rounded=0;" parent="VIP0-5HIC0JtuQcf17Q0-46" vertex="1">
          <mxGeometry x="38.71513432835821" y="104.97397590361446" width="43.62268656716418" height="23.156024096385543" as="geometry" />
        </mxCell>
        <mxCell id="VIP0-5HIC0JtuQcf17Q0-50" style="edgeStyle=elbowEdgeStyle;rounded=0;orthogonalLoop=1;jettySize=auto;html=1;exitX=0;exitY=0.5;exitDx=0;exitDy=0;exitPerimeter=0;entryX=0.998;entryY=0.302;entryDx=0;entryDy=0;entryPerimeter=0;flowAnimation=1;strokeColor=#000099;elbow=vertical;" parent="4qRpMjFqUVP8ZO3B1cwk-1" source="VIP0-5HIC0JtuQcf17Q0-9" target="VIP0-5HIC0JtuQcf17Q0-47" edge="1">
          <mxGeometry relative="1" as="geometry" />
        </mxCell>
        <mxCell id="hWWQz9CTG23grLyMKggC-6" value="VMBR3.500" style="edgeLabel;html=1;align=center;verticalAlign=middle;resizable=0;points=[];" parent="VIP0-5HIC0JtuQcf17Q0-50" vertex="1" connectable="0">
          <mxGeometry x="0.1697" y="1" relative="1" as="geometry">
            <mxPoint as="offset" />
          </mxGeometry>
        </mxCell>
        <mxCell id="VIP0-5HIC0JtuQcf17Q0-51" style="edgeStyle=elbowEdgeStyle;rounded=0;orthogonalLoop=1;jettySize=auto;html=1;exitX=0.5;exitY=0;exitDx=0;exitDy=0;exitPerimeter=0;entryX=0.531;entryY=1.001;entryDx=0;entryDy=0;entryPerimeter=0;flowAnimation=1;strokeColor=#000099;elbow=vertical;" parent="4qRpMjFqUVP8ZO3B1cwk-1" source="VIP0-5HIC0JtuQcf17Q0-9" target="VIP0-5HIC0JtuQcf17Q0-16" edge="1">
          <mxGeometry relative="1" as="geometry" />
        </mxCell>
        <mxCell id="hWWQz9CTG23grLyMKggC-7" value="VMBR3.10" style="edgeLabel;html=1;align=center;verticalAlign=middle;resizable=0;points=[];" parent="VIP0-5HIC0JtuQcf17Q0-51" vertex="1" connectable="0">
          <mxGeometry x="0.1734" y="1" relative="1" as="geometry">
            <mxPoint as="offset" />
          </mxGeometry>
        </mxCell>
        <mxCell id="VIP0-5HIC0JtuQcf17Q0-52" style="edgeStyle=elbowEdgeStyle;rounded=0;orthogonalLoop=1;jettySize=auto;html=1;exitX=1;exitY=0.5;exitDx=0;exitDy=0;exitPerimeter=0;entryX=0.013;entryY=0.588;entryDx=0;entryDy=0;entryPerimeter=0;flowAnimation=1;strokeColor=#000099;elbow=vertical;" parent="4qRpMjFqUVP8ZO3B1cwk-1" edge="1">
          <mxGeometry relative="1" as="geometry">
            <mxPoint x="482.50790816326526" y="298.23749066467514" as="sourcePoint" />
            <mxPoint x="712.4999999999999" y="333.124002987304" as="targetPoint" />
            <Array as="points">
              <mxPoint x="598.8344387755102" y="327.33383121732635" />
            </Array>
          </mxGeometry>
        </mxCell>
        <mxCell id="hWWQz9CTG23grLyMKggC-3" value="VMBR3.30" style="edgeLabel;html=1;align=center;verticalAlign=middle;resizable=0;points=[];" parent="VIP0-5HIC0JtuQcf17Q0-52" vertex="1" connectable="0">
          <mxGeometry x="0.2691" y="-1" relative="1" as="geometry">
            <mxPoint as="offset" />
          </mxGeometry>
        </mxCell>
        <mxCell id="VIP0-5HIC0JtuQcf17Q0-53" style="edgeStyle=none;rounded=0;orthogonalLoop=1;jettySize=auto;html=1;exitX=0.5;exitY=0;exitDx=0;exitDy=0;exitPerimeter=0;flowAnimation=1;strokeColor=#CC0066;" parent="4qRpMjFqUVP8ZO3B1cwk-1" source="VIP0-5HIC0JtuQcf17Q0-54" target="VIP0-5HIC0JtuQcf17Q0-13" edge="1">
          <mxGeometry relative="1" as="geometry" />
        </mxCell>
        <mxCell id="VIP0-5HIC0JtuQcf17Q0-54" value="" style="sketch=0;points=[[0.015,0.015,0],[0.985,0.015,0],[0.985,0.985,0],[0.015,0.985,0],[0.25,0,0],[0.5,0,0],[0.75,0,0],[1,0.25,0],[1,0.5,0],[1,0.75,0],[0.75,1,0],[0.5,1,0],[0.25,1,0],[0,0.75,0],[0,0.5,0],[0,0.25,0]];verticalLabelPosition=bottom;html=1;verticalAlign=top;aspect=fixed;align=center;pointerEvents=1;shape=mxgraph.cisco19.rect;prIcon=l2_switch;fillColor=none;strokeColor=#005073;" parent="4qRpMjFqUVP8ZO3B1cwk-1" vertex="1">
          <mxGeometry x="1065.296556122449" y="755.7774458551157" width="56.6333414480172" height="56.6333414480172" as="geometry" />
        </mxCell>
        <mxCell id="VIP0-5HIC0JtuQcf17Q0-55" style="edgeStyle=orthogonalEdgeStyle;rounded=0;orthogonalLoop=1;jettySize=auto;html=1;exitX=0.5;exitY=1;exitDx=0;exitDy=0;exitPerimeter=0;flowAnimation=1;strokeColor=#000099;" parent="4qRpMjFqUVP8ZO3B1cwk-1" source="VIP0-5HIC0JtuQcf17Q0-56" target="VIP0-5HIC0JtuQcf17Q0-10" edge="1">
          <mxGeometry relative="1" as="geometry" />
        </mxCell>
        <mxCell id="VIP0-5HIC0JtuQcf17Q0-56" value="" style="sketch=0;points=[[0.015,0.015,0],[0.985,0.015,0],[0.985,0.985,0],[0.015,0.985,0],[0.25,0,0],[0.5,0,0],[0.75,0,0],[1,0.25,0],[1,0.5,0],[1,0.75,0],[0.75,1,0],[0.5,1,0],[0.25,1,0],[0,0.75,0],[0,0.5,0],[0,0.25,0]];verticalLabelPosition=bottom;html=1;verticalAlign=top;aspect=fixed;align=center;pointerEvents=1;shape=mxgraph.cisco19.rect;prIcon=l2_switch;fillColor=none;strokeColor=#005073;" parent="4qRpMjFqUVP8ZO3B1cwk-1" vertex="1">
          <mxGeometry x="422.4107142857143" y="746.3211351755041" width="56.6333414480172" height="56.6333414480172" as="geometry" />
        </mxCell>
        <mxCell id="VIP0-5HIC0JtuQcf17Q0-57" value="&lt;div&gt;WIFI&lt;/div&gt;&lt;div&gt;Network address 192.168.60.0&lt;/div&gt;&lt;div&gt;IP : 192.168.60.1&lt;/div&gt;&lt;div&gt;Gateway : 192.168.60.254&lt;br&gt;&lt;/div&gt;" style="shape=mxgraph.cisco.wireless.wireless_transport;html=1;pointerEvents=1;dashed=0;fillColor=#036897;strokeColor=#ffffff;strokeWidth=2;verticalLabelPosition=bottom;verticalAlign=top;align=center;outlineConnect=0;" parent="4qRpMjFqUVP8ZO3B1cwk-1" vertex="1">
          <mxGeometry x="602.7168367346939" y="755.7774458551157" width="55.98214285714286" height="39.28005974607917" as="geometry" />
        </mxCell>
        <mxCell id="VIP0-5HIC0JtuQcf17Q0-58" style="edgeStyle=elbowEdgeStyle;rounded=0;orthogonalLoop=1;jettySize=auto;html=1;exitX=0.5;exitY=0;exitDx=0;exitDy=0;exitPerimeter=0;entryX=0.5;entryY=1;entryDx=0;entryDy=0;strokeColor=#FF0080;flowAnimation=1;elbow=vertical;" parent="4qRpMjFqUVP8ZO3B1cwk-1" source="VIP0-5HIC0JtuQcf17Q0-59" target="VIP0-5HIC0JtuQcf17Q0-61" edge="1">
          <mxGeometry relative="1" as="geometry" />
        </mxCell>
        <mxCell id="VIP0-5HIC0JtuQcf17Q0-59" value="" style="sketch=0;points=[[0.015,0.015,0],[0.985,0.015,0],[0.985,0.985,0],[0.015,0.985,0],[0.25,0,0],[0.5,0,0],[0.75,0,0],[1,0.25,0],[1,0.5,0],[1,0.75,0],[0.75,1,0],[0.5,1,0],[0.25,1,0],[0,0.75,0],[0,0.5,0],[0,0.25,0]];verticalLabelPosition=bottom;html=1;verticalAlign=top;aspect=fixed;align=center;pointerEvents=1;shape=mxgraph.cisco19.rect;prIcon=firewall;fillColor=#FAFAFA;strokeColor=#005073;" parent="4qRpMjFqUVP8ZO3B1cwk-1" vertex="1">
          <mxGeometry x="1050.9375" y="509.91336818521285" width="84.59605378797569" height="66.09110946983607" as="geometry" />
        </mxCell>
        <mxCell id="VIP0-5HIC0JtuQcf17Q0-60" value="&lt;font style=&quot;font-size: 48px;&quot;&gt;LAN&lt;/font&gt;" style="text;html=1;align=center;verticalAlign=middle;whiteSpace=wrap;rounded=0;rotation=90;" parent="4qRpMjFqUVP8ZO3B1cwk-1" vertex="1">
          <mxGeometry x="828.8265306122449" y="158.57505601194921" width="91.78890306122449" height="31.278566094100075" as="geometry" />
        </mxCell>
        <mxCell id="VIP0-5HIC0JtuQcf17Q0-61" value="" style="rounded=1;whiteSpace=wrap;html=1;fillColor=none;strokeColor=#b46504;" parent="4qRpMjFqUVP8ZO3B1cwk-1" vertex="1">
          <mxGeometry x="1206.1607142857142" y="109.1112770724421" width="186.84948979591837" height="256.77520537714713" as="geometry" />
        </mxCell>
        <mxCell id="VIP0-5HIC0JtuQcf17Q0-62" value="PRE-PROD" style="sketch=0;points=[[0.015,0.015,0],[0.985,0.015,0],[0.985,0.985,0],[0.015,0.985,0],[0.25,0,0],[0.5,0,0],[0.75,0,0],[1,0.25,0],[1,0.5,0],[1,0.75,0],[0.75,1,0],[0.5,1,0],[0.25,1,0],[0,0.75,0],[0,0.5,0],[0,0.25,0]];verticalLabelPosition=bottom;html=1;verticalAlign=top;aspect=fixed;align=center;pointerEvents=1;shape=mxgraph.cisco19.server;fillColor=#005073;strokeColor=none;" parent="4qRpMjFqUVP8ZO3B1cwk-1" vertex="1">
          <mxGeometry x="1283.5905612244899" y="138.20761762509335" width="31.14125862872846" height="56.6333414480172" as="geometry" />
        </mxCell>
        <mxCell id="VIP0-5HIC0JtuQcf17Q0-63" value="&lt;font style=&quot;font-size: 39px;&quot;&gt;DMZ&lt;/font&gt;" style="text;html=1;align=center;verticalAlign=middle;whiteSpace=wrap;rounded=0;rotation=-90;" parent="4qRpMjFqUVP8ZO3B1cwk-1" vertex="1">
          <mxGeometry x="1144.3622448979593" y="162.5103360716953" width="91.78890306122449" height="31.278566094100075" as="geometry" />
        </mxCell>
        <mxCell id="VIP0-5HIC0JtuQcf17Q0-64" value="PROD" style="sketch=0;points=[[0.015,0.015,0],[0.985,0.015,0],[0.985,0.985,0],[0.015,0.985,0],[0.25,0,0],[0.5,0,0],[0.75,0,0],[1,0.25,0],[1,0.5,0],[1,0.75,0],[0.75,1,0],[0.5,1,0],[0.25,1,0],[0,0.75,0],[0,0.5,0],[0,0.25,0]];verticalLabelPosition=bottom;html=1;verticalAlign=top;aspect=fixed;align=center;pointerEvents=1;shape=mxgraph.cisco19.server;fillColor=#005073;strokeColor=none;" parent="4qRpMjFqUVP8ZO3B1cwk-1" vertex="1">
          <mxGeometry x="1283.5905612244899" y="250.8759223300971" width="31.14125862872846" height="56.6333414480172" as="geometry" />
        </mxCell>
        <mxCell id="VIP0-5HIC0JtuQcf17Q0-65" style="edgeStyle=elbowEdgeStyle;rounded=0;orthogonalLoop=1;jettySize=auto;html=1;exitX=0;exitY=0.5;exitDx=0;exitDy=0;exitPerimeter=0;entryX=0.75;entryY=1;entryDx=0;entryDy=0;entryPerimeter=0;strokeColor=#FF0080;flowAnimation=1;elbow=vertical;" parent="4qRpMjFqUVP8ZO3B1cwk-1" source="VIP0-5HIC0JtuQcf17Q0-59" target="VIP0-5HIC0JtuQcf17Q0-9" edge="1">
          <mxGeometry relative="1" as="geometry">
            <Array as="points">
              <mxPoint x="745.9438775510205" y="567.3786407766991" />
            </Array>
          </mxGeometry>
        </mxCell>
        <mxCell id="VIP0-5HIC0JtuQcf17Q0-66" style="edgeStyle=none;rounded=0;orthogonalLoop=1;jettySize=auto;html=1;entryX=0.5;entryY=1;entryDx=0;entryDy=0;entryPerimeter=0;flowAnimation=1;strokeColor=#CC0066;" parent="4qRpMjFqUVP8ZO3B1cwk-1" source="VIP0-5HIC0JtuQcf17Q0-13" target="VIP0-5HIC0JtuQcf17Q0-59" edge="1">
          <mxGeometry relative="1" as="geometry" />
        </mxCell>
        <mxCell id="VIP0-5HIC0JtuQcf17Q0-67" value="" style="edgeStyle=none;rounded=0;orthogonalLoop=1;jettySize=auto;html=1;entryX=0.5;entryY=1;entryDx=0;entryDy=0;entryPerimeter=0;flowAnimation=1;strokeColor=#CC0066;" parent="4qRpMjFqUVP8ZO3B1cwk-1" source="VIP0-5HIC0JtuQcf17Q0-41" target="VIP0-5HIC0JtuQcf17Q0-54" edge="1">
          <mxGeometry relative="1" as="geometry" />
        </mxCell>
        <mxCell id="VIP0-5HIC0JtuQcf17Q0-68" style="edgeStyle=none;rounded=0;orthogonalLoop=1;jettySize=auto;html=1;exitX=1;exitY=0.5;exitDx=0;exitDy=0;exitPerimeter=0;entryX=0;entryY=0.5;entryDx=0;entryDy=0;entryPerimeter=0;" parent="4qRpMjFqUVP8ZO3B1cwk-1" source="VIP0-5HIC0JtuQcf17Q0-56" target="VIP0-5HIC0JtuQcf17Q0-57" edge="1">
          <mxGeometry relative="1" as="geometry" />
        </mxCell>
        <mxCell id="VIP0-5HIC0JtuQcf17Q0-69" value="&lt;font style=&quot;font-size: 42px;&quot;&gt;WAN&lt;/font&gt;" style="text;html=1;align=center;verticalAlign=middle;whiteSpace=wrap;rounded=0;rotation=-90;" parent="4qRpMjFqUVP8ZO3B1cwk-1" vertex="1">
          <mxGeometry x="923.3418367346939" y="761.596713965646" width="91.78890306122449" height="31.278566094100075" as="geometry" />
        </mxCell>
        <mxCell id="hWWQz9CTG23grLyMKggC-12" value="TEST" style="text;html=1;align=center;verticalAlign=middle;whiteSpace=wrap;rounded=0;" parent="4qRpMjFqUVP8ZO3B1cwk-1" vertex="1">
          <mxGeometry x="141.77" y="545" width="43.62" height="17" as="geometry" />
        </mxCell>
        <mxCell id="4qRpMjFqUVP8ZO3B1cwk-19" style="edgeStyle=orthogonalEdgeStyle;rounded=0;orthogonalLoop=1;jettySize=auto;html=1;endArrow=oval;endFill=1;flowAnimation=1;entryX=0.5;entryY=0;entryDx=0;entryDy=0;entryPerimeter=0;exitX=0.613;exitY=0.989;exitDx=0;exitDy=0;exitPerimeter=0;" edge="1" parent="1" source="4qRpMjFqUVP8ZO3B1cwk-11" target="4qRpMjFqUVP8ZO3B1cwk-2">
          <mxGeometry relative="1" as="geometry">
            <mxPoint x="313" y="1590" as="sourcePoint" />
            <mxPoint x="338" y="1632" as="targetPoint" />
            <Array as="points">
              <mxPoint x="317" y="1581" />
            </Array>
          </mxGeometry>
        </mxCell>
        <mxCell id="4qRpMjFqUVP8ZO3B1cwk-2" value="" style="sketch=0;points=[[0.015,0.015,0],[0.985,0.015,0],[0.985,0.985,0],[0.015,0.985,0],[0.25,0,0],[0.5,0,0],[0.75,0,0],[1,0.25,0],[1,0.5,0],[1,0.75,0],[0.75,1,0],[0.5,1,0],[0.25,1,0],[0,0.75,0],[0,0.5,0],[0,0.25,0]];verticalLabelPosition=bottom;html=1;verticalAlign=top;aspect=fixed;align=center;pointerEvents=1;shape=mxgraph.cisco19.rect;prIcon=l2_switch;fillColor=#FAFAFA;strokeColor=#005073;" vertex="1" parent="1">
          <mxGeometry x="292" y="1675" width="50" height="50" as="geometry" />
        </mxCell>
        <mxCell id="4qRpMjFqUVP8ZO3B1cwk-3" value="" style="sketch=0;points=[[0.5,0,0],[1,0.5,0],[0.5,1,0],[0,0.5,0],[0.145,0.145,0],[0.8555,0.145,0],[0.855,0.8555,0],[0.145,0.855,0]];verticalLabelPosition=bottom;html=1;verticalAlign=top;aspect=fixed;align=center;pointerEvents=1;shape=mxgraph.cisco19.rect;prIcon=router;fillColor=#FAFAFA;strokeColor=#005073;" vertex="1" parent="1">
          <mxGeometry x="291.9959183673469" y="1774.918722927558" width="49.554173767015044" height="49.554173767015044" as="geometry" />
        </mxCell>
        <mxCell id="4qRpMjFqUVP8ZO3B1cwk-5" value="" style="group" connectable="0" vertex="1" parent="1">
          <mxGeometry x="123" y="1229" width="140.37" height="119.74" as="geometry" />
        </mxCell>
        <mxCell id="4qRpMjFqUVP8ZO3B1cwk-6" value="" style="rounded=1;whiteSpace=wrap;html=1;fillColor=#e1d5e7;strokeColor=#9673a6;" vertex="1" parent="4qRpMjFqUVP8ZO3B1cwk-5">
          <mxGeometry y="4.5327444794952685" width="140.37" height="113.31861198738169" as="geometry" />
        </mxCell>
        <mxCell id="4qRpMjFqUVP8ZO3B1cwk-9" value="Admin" style="text;html=1;align=center;verticalAlign=middle;whiteSpace=wrap;rounded=0;" vertex="1" parent="4qRpMjFqUVP8ZO3B1cwk-5">
          <mxGeometry x="47.17991666666668" y="99.34264984227129" width="46.790000000000006" height="22.66372239747634" as="geometry" />
        </mxCell>
        <mxCell id="4qRpMjFqUVP8ZO3B1cwk-7" value="&lt;div style=&quot;font-size: 9px;&quot;&gt;&lt;font style=&quot;font-size: 9px;&quot;&gt;Network address 192.168.200.0/24&lt;/font&gt;&lt;/div&gt;&lt;div style=&quot;font-size: 9px;&quot;&gt;&lt;font style=&quot;font-size: 9px;&quot;&gt;DHCP: 192.168.200.1 → 254&lt;/font&gt;&lt;/div&gt;&lt;div style=&quot;font-size: 9px;&quot;&gt;&lt;font style=&quot;font-size: 9px;&quot;&gt;Gateway : 192.168.200.254&lt;/font&gt;&lt;br&gt;&lt;/div&gt;" style="shape=mxgraph.cisco.computers_and_peripherals.terminal;html=1;pointerEvents=1;dashed=0;fillColor=#036897;strokeColor=#ffffff;strokeWidth=2;verticalLabelPosition=bottom;verticalAlign=top;align=center;outlineConnect=0;" vertex="1" parent="4qRpMjFqUVP8ZO3B1cwk-5">
          <mxGeometry x="46.400083333333335" y="25.685552050473188" width="47.569833333333335" height="40.79470031545742" as="geometry" />
        </mxCell>
        <mxCell id="4qRpMjFqUVP8ZO3B1cwk-8" value="&lt;h1 style=&quot;margin-top: 0px; font-size: 17px;&quot;&gt;&lt;font style=&quot;font-size: 17px;&quot;&gt;VLAN100&lt;br&gt;&lt;/font&gt;&lt;/h1&gt;&lt;p style=&quot;font-size: 17px;&quot;&gt;&lt;br&gt;&lt;/p&gt;" style="text;html=1;whiteSpace=wrap;overflow=hidden;rounded=0;" vertex="1" parent="4qRpMjFqUVP8ZO3B1cwk-5">
          <mxGeometry x="32" width="84.98" height="30.22" as="geometry" />
        </mxCell>
        <mxCell id="4qRpMjFqUVP8ZO3B1cwk-23" style="edgeStyle=orthogonalEdgeStyle;rounded=0;orthogonalLoop=1;jettySize=auto;html=1;exitX=0.5;exitY=1;exitDx=0;exitDy=0;exitPerimeter=0;endArrow=oval;endFill=1;flowAnimation=1;" edge="1" parent="1" source="4qRpMjFqUVP8ZO3B1cwk-10" target="4qRpMjFqUVP8ZO3B1cwk-13">
          <mxGeometry relative="1" as="geometry" />
        </mxCell>
        <mxCell id="4qRpMjFqUVP8ZO3B1cwk-10" value="" style="sketch=0;points=[[0.015,0.015,0],[0.985,0.015,0],[0.985,0.985,0],[0.015,0.985,0],[0.25,0,0],[0.5,0,0],[0.75,0,0],[1,0.25,0],[1,0.5,0],[1,0.75,0],[0.75,1,0],[0.5,1,0],[0.25,1,0],[0,0.75,0],[0,0.5,0],[0,0.25,0]];verticalLabelPosition=bottom;html=1;verticalAlign=top;aspect=fixed;align=center;pointerEvents=1;shape=mxgraph.cisco19.rect;prIcon=firewall;fillColor=#FAFAFA;strokeColor=#005073;" vertex="1" parent="1">
          <mxGeometry x="629.2974999999999" y="1360.9533681852129" width="84.59605378797569" height="66.09110946983607" as="geometry" />
        </mxCell>
        <mxCell id="4qRpMjFqUVP8ZO3B1cwk-11" value="" style="sketch=0;pointerEvents=1;shadow=0;dashed=0;html=1;strokeColor=none;fillColor=#434445;aspect=fixed;labelPosition=center;verticalLabelPosition=bottom;verticalAlign=top;align=center;outlineConnect=0;shape=mxgraph.vvd.ethernet_port;" vertex="1" parent="1">
          <mxGeometry x="299.30216836734695" y="1546.0028454070202" width="35.39583840501075" height="35.39583840501075" as="geometry" />
        </mxCell>
        <mxCell id="4qRpMjFqUVP8ZO3B1cwk-12" value="Internet" style="verticalLabelPosition=bottom;sketch=0;html=1;fillColor=#282828;strokeColor=none;verticalAlign=top;pointerEvents=1;align=center;shape=mxgraph.cisco_safe.business_icons.icon14;" vertex="1" parent="1">
          <mxGeometry x="642.1530357142857" y="1716.0013442867812" width="58.89030612244898" height="58.92008961911874" as="geometry" />
        </mxCell>
        <mxCell id="4qRpMjFqUVP8ZO3B1cwk-13" value="" style="sketch=0;pointerEvents=1;shadow=0;dashed=0;html=1;strokeColor=none;fillColor=#434445;aspect=fixed;labelPosition=center;verticalLabelPosition=bottom;verticalAlign=top;align=center;outlineConnect=0;shape=mxgraph.vvd.ethernet_port;" vertex="1" parent="1">
          <mxGeometry x="653.9021683673469" y="1546.0028454070202" width="35.39583840501075" height="35.39583840501075" as="geometry" />
        </mxCell>
        <mxCell id="4qRpMjFqUVP8ZO3B1cwk-25" style="edgeStyle=orthogonalEdgeStyle;rounded=0;orthogonalLoop=1;jettySize=auto;html=1;entryX=0.5;entryY=0;entryDx=0;entryDy=0;entryPerimeter=0;endArrow=oval;endFill=1;flowAnimation=1;" edge="1" parent="1" source="4qRpMjFqUVP8ZO3B1cwk-13" target="4qRpMjFqUVP8ZO3B1cwk-14">
          <mxGeometry relative="1" as="geometry">
            <mxPoint x="719" y="1601" as="sourcePoint" />
          </mxGeometry>
        </mxCell>
        <mxCell id="4qRpMjFqUVP8ZO3B1cwk-14" value="" style="sketch=0;points=[[0.015,0.015,0],[0.985,0.015,0],[0.985,0.985,0],[0.015,0.985,0],[0.25,0,0],[0.5,0,0],[0.75,0,0],[1,0.25,0],[1,0.5,0],[1,0.75,0],[0.75,1,0],[0.5,1,0],[0.25,1,0],[0,0.75,0],[0,0.5,0],[0,0.25,0]];verticalLabelPosition=bottom;html=1;verticalAlign=top;aspect=fixed;align=center;pointerEvents=1;shape=mxgraph.cisco19.rect;prIcon=l2_switch;fillColor=#FAFAFA;strokeColor=#005073;" vertex="1" parent="1">
          <mxGeometry x="646.6" y="1625" width="50" height="50" as="geometry" />
        </mxCell>
        <mxCell id="4qRpMjFqUVP8ZO3B1cwk-18" style="edgeStyle=orthogonalEdgeStyle;rounded=0;orthogonalLoop=1;jettySize=auto;html=1;exitX=0.5;exitY=1;exitDx=0;exitDy=0;exitPerimeter=0;endArrow=oval;endFill=1;flowAnimation=1;" edge="1" parent="1" source="4qRpMjFqUVP8ZO3B1cwk-15" target="4qRpMjFqUVP8ZO3B1cwk-11">
          <mxGeometry relative="1" as="geometry" />
        </mxCell>
        <mxCell id="4qRpMjFqUVP8ZO3B1cwk-15" value="" style="sketch=0;points=[[0.015,0.015,0],[0.985,0.015,0],[0.985,0.985,0],[0.015,0.985,0],[0.25,0,0],[0.5,0,0],[0.75,0,0],[1,0.25,0],[1,0.5,0],[1,0.75,0],[0.75,1,0],[0.5,1,0],[0.25,1,0],[0,0.75,0],[0,0.5,0],[0,0.25,0]];verticalLabelPosition=bottom;html=1;verticalAlign=top;aspect=fixed;align=center;pointerEvents=1;shape=mxgraph.cisco19.rect;prIcon=l2_switch;fillColor=#FAFAFA;strokeColor=#005073;" vertex="1" parent="1">
          <mxGeometry x="292" y="1369" width="50" height="50" as="geometry" />
        </mxCell>
        <mxCell id="4qRpMjFqUVP8ZO3B1cwk-17" style="edgeStyle=orthogonalEdgeStyle;rounded=0;orthogonalLoop=1;jettySize=auto;html=1;exitX=1;exitY=0.5;exitDx=0;exitDy=0;entryX=0.5;entryY=0;entryDx=0;entryDy=0;entryPerimeter=0;endArrow=oval;endFill=1;flowAnimation=1;" edge="1" parent="1" source="4qRpMjFqUVP8ZO3B1cwk-6" target="4qRpMjFqUVP8ZO3B1cwk-15">
          <mxGeometry relative="1" as="geometry" />
        </mxCell>
        <mxCell id="4qRpMjFqUVP8ZO3B1cwk-20" style="edgeStyle=orthogonalEdgeStyle;rounded=0;orthogonalLoop=1;jettySize=auto;html=1;exitX=0.5;exitY=1;exitDx=0;exitDy=0;exitPerimeter=0;entryX=0.5;entryY=0;entryDx=0;entryDy=0;entryPerimeter=0;flowAnimation=1;endArrow=oval;endFill=1;" edge="1" parent="1" source="4qRpMjFqUVP8ZO3B1cwk-2" target="4qRpMjFqUVP8ZO3B1cwk-3">
          <mxGeometry relative="1" as="geometry" />
        </mxCell>
        <mxCell id="4qRpMjFqUVP8ZO3B1cwk-22" style="edgeStyle=orthogonalEdgeStyle;rounded=0;orthogonalLoop=1;jettySize=auto;html=1;exitX=0;exitY=0.5;exitDx=0;exitDy=0;exitPerimeter=0;entryX=1;entryY=0.5;entryDx=0;entryDy=0;entryPerimeter=0;endArrow=oval;endFill=1;flowAnimation=1;" edge="1" parent="1" source="4qRpMjFqUVP8ZO3B1cwk-10" target="4qRpMjFqUVP8ZO3B1cwk-15">
          <mxGeometry relative="1" as="geometry" />
        </mxCell>
        <mxCell id="4qRpMjFqUVP8ZO3B1cwk-24" style="edgeStyle=orthogonalEdgeStyle;rounded=0;orthogonalLoop=1;jettySize=auto;html=1;exitX=0.5;exitY=1;exitDx=0;exitDy=0;exitPerimeter=0;entryX=0.504;entryY=0.073;entryDx=0;entryDy=0;entryPerimeter=0;flowAnimation=1;endArrow=oval;endFill=1;" edge="1" parent="1" source="4qRpMjFqUVP8ZO3B1cwk-14" target="4qRpMjFqUVP8ZO3B1cwk-12">
          <mxGeometry relative="1" as="geometry" />
        </mxCell>
      </root>
    </mxGraphModel>
  </diagram>
</mxfile>
